<svg width="288" height="288" viewBox="0 0 288 288" fill="none" xmlns="http://www.w3.org/2000/svg">
<rect width="288" height="288" fill="#5865F2"/>
<path d="M221.626 72.7893C207.35 66.2331 192.041 61.4086 176.034 58.6431C175.741 58.5914 175.448 58.7292 175.301 58.9963C173.329 62.4941 171.149 67.0602 169.624 70.6528C152.402 68.0768 135.275 68.0768 118.415 70.6528C116.89 66.9826 114.624 62.4941 112.651 58.9963C112.496 58.7378 112.203 58.6 111.919 58.6431C95.9203 61.3999 80.6109 66.2245 66.3182 72.7893C66.1976 72.841 66.0942 72.9272 66.0253 73.0478C36.9832 116.426 29.0227 158.744 32.9254 200.537C32.9426 200.743 33.0632 200.942 33.2183 201.062C52.3787 215.131 70.936 223.677 89.1573 229.338C89.4416 229.424 89.7518 229.32 89.9413 229.079C94.2489 223.195 98.0913 216.992 101.382 210.47C101.572 210.082 101.391 209.634 100.995 209.479C94.9037 207.17 89.097 204.353 83.5229 201.157C83.0749 200.899 83.0405 200.261 83.454 199.959C84.6257 199.081 85.7973 198.167 86.9173 197.246C87.1241 197.073 87.4084 197.039 87.641 197.142C124.299 213.882 163.99 213.882 200.217 197.142C200.458 197.03 200.734 197.065 200.949 197.237C202.069 198.159 203.241 199.081 204.43 199.959C204.835 200.261 204.809 200.899 204.369 201.157C198.787 204.414 192.989 207.17 186.88 209.471C186.484 209.626 186.312 210.082 186.501 210.47C189.87 216.983 193.712 223.186 197.934 229.07C198.115 229.32 198.433 229.424 198.726 229.338C217.025 223.677 235.583 215.131 254.743 201.062C254.915 200.942 255.019 200.752 255.036 200.545C259.705 152.231 247.213 110.257 221.919 73.0564C221.858 72.9272 221.746 72.841 221.626 72.7893ZM106.853 175.096C95.8169 175.096 86.7278 164.956 86.7278 152.515C86.7278 140.075 95.6446 129.943 106.853 129.943C118.156 129.943 127.159 140.161 126.987 152.515C126.987 164.956 118.07 175.096 106.853 175.096ZM181.289 175.096C170.253 175.096 161.155 164.956 161.155 152.515C161.155 140.075 170.072 129.943 181.289 129.943C192.584 129.943 201.595 140.161 201.414 152.515C201.414 164.956 192.584 175.096 181.289 175.096Z" fill="white"/>
</svg>
