<svg width="144" height="144" viewBox="0 0 144 144" fill="none" xmlns="http://www.w3.org/2000/svg">
<g clip-path="url(#clip0_4039_12834)">
<rect width="144" height="144" fill="#F23F43"/>
<path fill-rule="evenodd" clip-rule="evenodd" d="M0 63.0719V143.722C0.214 143.816 0.428 143.908 0.642 144H13.466C14.811 141.921 16.048 139.773 17.167 137.555C17.271 137.351 17.172 137.108 16.959 137.027C13.696 135.789 10.588 134.279 7.599 132.565C7.362 132.427 7.343 132.089 7.561 131.927C8.19 131.455 8.819 130.965 9.42 130.47C9.528 130.379 9.68 130.36 9.808 130.417C29.446 139.384 50.708 139.384 70.115 130.417C70.243 130.356 70.394 130.375 70.507 130.465C71.108 130.96 71.737 131.455 72.371 131.927C72.589 132.089 72.574 132.427 72.338 132.565C69.349 134.312 66.241 135.789 62.973 137.022C62.76 137.103 62.665 137.351 62.769 137.555C63.913 139.771 65.16 141.92 66.498 144H79.323C85.887 141.195 92.536 137.504 99.327 132.517C99.417 132.451 99.474 132.351 99.483 132.241C101.985 106.357 95.292 83.8719 81.741 63.9389C81.708 63.8729 81.651 63.8249 81.585 63.7969C73.937 60.2869 65.735 57.7019 57.159 56.2209C57.003 56.1919 56.847 56.2639 56.767 56.4059C55.712 58.2829 54.544 60.7299 53.725 62.6539C44.502 61.2729 35.326 61.2729 26.292 62.6539C25.473 60.6869 24.262 58.2829 23.203 56.4059C23.122 56.2679 22.966 56.1969 22.81 56.2209C14.839 57.5939 7.188 59.9259 0 63.0719ZM20.1 118.604C14.187 118.604 9.316 113.175 9.316 106.509C9.316 99.8429 14.093 94.4139 20.1 94.4139C26.154 94.4139 30.979 99.8899 30.884 106.509C30.884 113.175 26.107 118.604 20.1 118.604ZM59.974 118.604C54.061 118.604 49.189 113.175 49.189 106.509C49.189 99.8429 53.967 94.4139 59.974 94.4139C66.028 94.4139 70.853 99.8899 70.758 106.509C70.758 113.175 66.028 118.604 59.974 118.604Z" fill="black" fill-opacity="0.15"/>
<path d="M104.121 44.1213C105.293 42.9497 105.293 41.0503 104.121 39.8787C102.95 38.7071 101.05 38.7071 99.8787 39.8787L39.8787 99.8787C38.7071 101.05 38.7071 102.95 39.8787 104.121C41.0503 105.293 42.9497 105.293 44.1213 104.121L104.121 44.1213Z" fill="white"/>
<path d="M72.0033 40.8001C77.2283 40.8001 82.1536 42.0847 86.4805 44.3555L81.8179 49.052C78.7443 47.737 75.4082 47.0401 72.0003 47.0401C65.3805 47.0401 59.0318 49.6698 54.3509 54.3507C49.67 59.0316 47.0403 65.3803 47.0403 72.0001C47.0308 74.0888 47.1833 76.175 47.4963 78.2401H52.8407L43.6437 87.5041C41.63 82.7082 40.8003 77.4786 40.8003 72.0001C40.8003 54.7681 54.7653 40.8001 72.0033 40.8001Z" fill="white"/>
<path d="M99.4862 57.2186L94.8295 61.9091C96.2213 65.0579 96.9603 68.4909 96.9603 72.0001C96.9603 74.1601 96.8163 76.2421 96.5043 78.2401H90.7203C87.7743 78.2401 85.0023 79.6291 83.2323 81.9841L77.0763 90.1891C76.3557 91.1499 75.8861 92.2753 75.7101 93.4634C75.5341 94.6514 75.6572 95.8646 76.0683 96.9931C77.8953 102.015 84.1293 104.997 89.1033 101.391C99.5793 93.8041 103.203 83.4451 103.203 72.0001C103.203 66.6518 101.857 61.618 99.4862 57.2186Z" fill="white"/>
<path d="M55.3349 101.691L66.8492 90.0931L66.9213 90.1891C67.6419 91.1499 68.1114 92.2753 68.2875 93.4634C68.4635 94.6514 68.3404 95.8646 67.9293 96.9931C66.1587 101.868 60.2329 104.821 55.3349 101.691Z" fill="white"/>
</g>
<defs>
<clipPath id="clip0_4039_12834">
<rect width="144" height="144" fill="white"/>
</clipPath>
</defs>
</svg>
