<svg width="144" height="144" viewBox="0 0 144 144" fill="none" xmlns="http://www.w3.org/2000/svg">
<g clip-path="url(#clip0_4039_12833)">
<rect width="144" height="144" fill="#5865F2"/>
<path fill-rule="evenodd" clip-rule="evenodd" d="M0 63.0719V143.722C0.214 143.816 0.428 143.908 0.642 144H13.466C14.811 141.921 16.048 139.773 17.167 137.555C17.271 137.351 17.172 137.108 16.959 137.027C13.696 135.789 10.588 134.279 7.599 132.565C7.362 132.427 7.343 132.089 7.561 131.927C8.19 131.455 8.819 130.965 9.42 130.47C9.528 130.379 9.68 130.36 9.808 130.417C29.446 139.384 50.708 139.384 70.115 130.417C70.243 130.356 70.394 130.375 70.507 130.465C71.108 130.96 71.737 131.455 72.371 131.927C72.589 132.089 72.574 132.427 72.338 132.565C69.349 134.312 66.241 135.789 62.973 137.022C62.76 137.103 62.665 137.351 62.769 137.555C63.913 139.771 65.16 141.92 66.498 144H79.323C85.887 141.195 92.536 137.504 99.327 132.517C99.417 132.451 99.474 132.351 99.483 132.241C101.985 106.357 95.292 83.8719 81.741 63.9389C81.708 63.8729 81.651 63.8249 81.585 63.7969C73.937 60.2869 65.735 57.7019 57.159 56.2209C57.003 56.1919 56.847 56.2639 56.767 56.4059C55.712 58.2829 54.544 60.7299 53.725 62.6539C44.502 61.2729 35.326 61.2729 26.292 62.6539C25.473 60.6869 24.262 58.2829 23.203 56.4059C23.122 56.2679 22.966 56.1969 22.81 56.2209C14.839 57.5939 7.188 59.9259 0 63.0719ZM20.1 118.604C14.187 118.604 9.316 113.175 9.316 106.509C9.316 99.8429 14.093 94.4139 20.1 94.4139C26.154 94.4139 30.979 99.8899 30.884 106.509C30.884 113.175 26.107 118.604 20.1 118.604ZM59.974 118.604C54.061 118.604 49.189 113.175 49.189 106.509C49.189 99.8429 53.967 94.4139 59.974 94.4139C66.028 94.4139 70.853 99.8899 70.758 106.509C70.758 113.175 66.028 118.604 59.974 118.604Z" fill="black" fill-opacity="0.15"/>
<path d="M47.0398 72C47.0398 65.3802 49.6695 59.0316 54.3504 54.3507C59.0313 49.6698 65.38 47.04 71.9998 47.04C78.6196 47.04 84.9683 49.6698 89.6492 54.3507C94.3301 59.0316 96.9598 65.3802 96.9598 72C96.9598 74.16 96.8158 76.242 96.5038 78.24H90.7198C87.7738 78.24 85.0018 79.629 83.2318 81.984L77.0758 90.189C76.3552 91.1499 75.8856 92.2753 75.7096 93.4633C75.5336 94.6514 75.6567 95.8646 76.0678 96.993C77.8948 102.015 84.1288 104.997 89.1028 101.391C99.5788 93.8041 103.203 83.445 103.203 72C103.203 54.768 89.2318 40.8 72.0028 40.8C54.7648 40.8 40.7998 54.768 40.7998 72C40.7998 83.445 44.4208 93.8041 54.8938 101.391C59.8708 104.997 66.1048 102.015 67.9288 96.993C68.3399 95.8646 68.463 94.6514 68.287 93.4633C68.111 92.2753 67.6414 91.1499 66.9208 90.189L60.7648 81.984C59.8929 80.8223 58.7628 79.8793 57.4637 79.2295C56.1647 78.5797 54.7323 78.241 53.2798 78.24H47.4958C47.1828 76.175 47.0303 74.0887 47.0398 72Z" fill="white"/>
</g>
<defs>
<clipPath id="clip0_4039_12833">
<rect width="144" height="144" fill="white"/>
</clipPath>
</defs>
</svg>
