<svg width="144" height="144" viewBox="0 0 144 144" fill="none" xmlns="http://www.w3.org/2000/svg">
<g clip-path="url(#clip0_4040_5828)">
<rect width="144" height="144" fill="#5865F2"/>
<path fill-rule="evenodd" clip-rule="evenodd" d="M0 63.0719V143.722C0.214 143.816 0.428 143.908 0.642 144H13.466C14.811 141.921 16.048 139.773 17.167 137.555C17.271 137.351 17.172 137.108 16.959 137.027C13.696 135.789 10.588 134.279 7.599 132.565C7.362 132.427 7.343 132.089 7.561 131.927C8.19 131.455 8.819 130.965 9.42 130.47C9.528 130.379 9.68 130.36 9.808 130.417C29.446 139.384 50.708 139.384 70.115 130.417C70.243 130.356 70.394 130.375 70.507 130.465C71.108 130.96 71.737 131.455 72.371 131.927C72.589 132.089 72.574 132.427 72.338 132.565C69.349 134.312 66.241 135.789 62.973 137.022C62.76 137.103 62.665 137.351 62.769 137.555C63.913 139.771 65.16 141.92 66.498 144H79.323C85.887 141.195 92.536 137.504 99.327 132.517C99.417 132.451 99.474 132.351 99.483 132.241C101.985 106.357 95.292 83.8719 81.741 63.9389C81.708 63.8729 81.651 63.8249 81.585 63.7969C73.937 60.2869 65.735 57.7019 57.159 56.2209C57.003 56.1919 56.847 56.2639 56.767 56.4059C55.712 58.2829 54.544 60.7299 53.725 62.6539C44.502 61.2729 35.326 61.2729 26.292 62.6539C25.473 60.6869 24.262 58.2829 23.203 56.4059C23.122 56.2679 22.966 56.1969 22.81 56.2209C14.839 57.5939 7.188 59.9259 0 63.0719ZM20.1 118.604C14.187 118.604 9.316 113.175 9.316 106.509C9.316 99.8429 14.093 94.4139 20.1 94.4139C26.154 94.4139 30.979 99.8899 30.884 106.509C30.884 113.175 26.107 118.604 20.1 118.604ZM59.974 118.604C54.061 118.604 49.189 113.175 49.189 106.509C49.189 99.8429 53.967 94.4139 59.974 94.4139C66.028 94.4139 70.853 99.8899 70.758 106.509C70.758 113.175 66.028 118.604 59.974 118.604Z" fill="black" fill-opacity="0.15"/>
<path d="M76.797 47.0398L76.6046 47.0405C75.6588 44.7864 74.2674 42.7655 72.5405 41.0879C73.9332 40.8979 75.3551 40.7998 76.8 40.7998C94.029 40.7998 108 54.7678 108 71.9998C108 83.4448 104.376 93.8038 93.9 101.391C88.926 104.997 82.692 102.015 80.865 96.9928C80.4539 95.8643 80.3308 94.6511 80.5068 93.4631C80.6828 92.275 81.1524 91.1496 81.873 90.1888L88.029 81.9838C89.799 79.6288 92.571 78.2398 95.517 78.2398H101.301C101.613 76.2418 101.757 74.1598 101.757 71.9998C101.757 65.38 99.1273 59.0313 94.4464 54.3504C89.7655 49.6695 83.4168 47.0398 76.797 47.0398Z" fill="white"/>
<path d="M72 54.1199C72 50.9373 70.7357 47.8851 68.4853 45.6346C66.2348 43.3842 63.1826 42.1199 60 42.1199C56.8174 42.1199 53.7652 43.3842 51.5147 45.6346C49.2643 47.8851 48 50.9373 48 54.1199V65.9999C48 69.1825 49.2643 72.2347 51.5147 74.4852C53.7652 76.7356 56.8174 77.9999 60 77.9999C63.1826 77.9999 66.2348 76.7356 68.4853 74.4852C70.7357 72.2347 72 69.1825 72 65.9999V54.1199Z" fill="white"/>
<path d="M39 62.9999C40.6569 62.9999 42 64.343 42 65.9999C42 70.7738 43.8964 75.3521 47.2721 78.7278C50.6477 82.1035 55.2261 83.9999 60 83.9999C64.7739 83.9999 69.3523 82.1035 72.7279 78.7278C76.1036 75.3521 78 70.7738 78 65.9999C78 64.343 79.3431 62.9999 81 62.9999C82.6569 62.9999 84 64.343 84 65.9999C84 72.3651 81.4714 78.4696 76.9706 82.9704C73.1827 86.7583 68.259 89.1493 63 89.8117V95.9999H69C69.7957 95.9999 70.5587 96.3159 71.1213 96.8786C71.6839 97.4412 72 98.2042 72 98.9999C72 99.7955 71.6839 100.559 71.1213 101.121C70.5587 101.684 69.7957 102 69 102H51C50.2043 102 49.4413 101.684 48.8787 101.121C48.3161 100.559 48 99.7955 48 98.9999C48 98.2042 48.3161 97.4412 48.8787 96.8786C49.4413 96.3159 50.2043 95.9999 51 95.9999H57V89.8117C51.741 89.1493 46.8173 86.7583 43.0294 82.9704C38.5286 78.4696 36 72.3651 36 65.9999C36 64.343 37.3431 62.9999 39 62.9999Z" fill="white"/>
</g>
<defs>
<clipPath id="clip0_4040_5828">
<rect width="144" height="144" fill="white"/>
</clipPath>
</defs>
</svg>
