<svg width="144" height="144" viewBox="0 0 144 144" fill="none" xmlns="http://www.w3.org/2000/svg">
<g clip-path="url(#clip0_4040_5857)">
<rect width="144" height="144" fill="#F23F43"/>
<path fill-rule="evenodd" clip-rule="evenodd" d="M0 63.0719V143.722C0.214 143.816 0.428 143.908 0.642 144H13.466C14.811 141.921 16.048 139.773 17.167 137.555C17.271 137.351 17.172 137.108 16.959 137.027C13.696 135.789 10.588 134.279 7.599 132.565C7.362 132.427 7.343 132.089 7.561 131.927C8.19 131.455 8.819 130.965 9.42 130.47C9.528 130.379 9.68 130.36 9.808 130.417C29.446 139.384 50.708 139.384 70.115 130.417C70.243 130.356 70.394 130.375 70.507 130.465C71.108 130.96 71.737 131.455 72.371 131.927C72.589 132.089 72.574 132.427 72.338 132.565C69.349 134.312 66.241 135.789 62.973 137.022C62.76 137.103 62.665 137.351 62.769 137.555C63.913 139.771 65.16 141.92 66.498 144H79.323C85.887 141.195 92.536 137.504 99.327 132.517C99.417 132.451 99.474 132.351 99.483 132.241C101.985 106.357 95.292 83.8719 81.741 63.9389C81.708 63.8729 81.651 63.8249 81.585 63.7969C73.937 60.2869 65.735 57.7019 57.159 56.2209C57.003 56.1919 56.847 56.2639 56.767 56.4059C55.712 58.2829 54.544 60.7299 53.725 62.6539C44.502 61.2729 35.326 61.2729 26.292 62.6539C25.473 60.6869 24.262 58.2829 23.203 56.4059C23.122 56.2679 22.966 56.1969 22.81 56.2209C14.839 57.5939 7.188 59.9259 0 63.0719ZM20.1 118.604C14.187 118.604 9.316 113.175 9.316 106.509C9.316 99.8429 14.093 94.4139 20.1 94.4139C26.154 94.4139 30.979 99.8899 30.884 106.509C30.884 113.175 26.107 118.604 20.1 118.604ZM59.974 118.604C54.061 118.604 49.189 113.175 49.189 106.509C49.189 99.8429 53.967 94.4139 59.974 94.4139C66.028 94.4139 70.853 99.8899 70.758 106.509C70.758 113.175 66.028 118.604 59.974 118.604Z" fill="black" fill-opacity="0.15"/>
<path d="M104.121 44.1213C105.293 42.9497 105.293 41.0503 104.121 39.8787C102.95 38.7071 101.05 38.7071 99.8787 39.8787L39.8787 99.8787C38.7071 101.05 38.7071 102.95 39.8787 104.121C41.0503 105.293 42.9497 105.293 44.1213 104.121L104.121 44.1213Z" fill="white"/>
<path d="M61.0004 70.5759C60.9716 70.5098 60.9433 70.4434 60.9156 70.3768C60.3119 68.9229 60.0008 67.3643 60 65.79V54.12C60 50.9374 61.2643 47.8852 63.5147 45.6347C65.7652 43.3843 68.8174 42.12 72 42.12C75.1826 42.12 78.2348 43.3843 80.4853 45.6347C81.3872 46.5367 82.1307 47.5673 82.6979 48.6836L61.0004 70.5759Z" fill="white"/>
<path d="M89.9925 66.3085L93.4469 62.8231C94.8918 63.0389 96 64.2851 96 65.7901C96 68.9418 95.3792 72.0627 94.1731 74.9745C92.967 77.8863 91.1992 80.532 88.9706 82.7606C86.742 84.9892 84.0962 86.7571 81.1844 87.9632C79.2011 88.7847 77.1209 89.3346 75 89.6018V95.76H81C81.7957 95.76 82.5587 96.0761 83.1213 96.6387C83.6839 97.2013 84 97.9644 84 98.76C84 99.5557 83.6839 100.319 83.1213 100.881C82.5587 101.444 81.7957 101.76 81 101.76H63C62.2043 101.76 61.4413 101.444 60.8787 100.881C60.3161 100.319 60 99.5557 60 98.76C60 97.9644 60.3161 97.2013 60.8787 96.6387C61.4413 96.0761 62.2043 95.76 63 95.76H69V89.6018C68.3964 89.5258 67.7961 89.4268 67.2004 89.3053L72.6792 83.7773C74.8112 83.6967 76.9138 83.2377 78.8883 82.4199C81.0722 81.5153 83.0565 80.1894 84.7279 78.518C86.3994 76.8465 87.7252 74.8622 88.6298 72.6784C89.4682 70.6543 89.9295 68.4955 89.9925 66.3085Z" fill="white"/>
<path d="M52.2414 79.4135L56.5651 75.051C56.1099 74.2923 55.7103 73.4995 55.3702 72.6784C54.4656 70.4945 54 68.1539 54 65.7901C54 64.1332 52.6569 62.7901 51 62.7901C49.3431 62.7901 48 64.1332 48 65.7901C48 68.9418 48.6208 72.0627 49.8269 74.9745C50.4748 76.5387 51.2849 78.0262 52.2414 79.4135Z" fill="white"/>
</g>
<defs>
<clipPath id="clip0_4040_5857">
<rect width="144" height="144" fill="white"/>
</clipPath>
</defs>
</svg>
