<svg width="144" height="144" viewBox="0 0 144 144" fill="none" xmlns="http://www.w3.org/2000/svg">
<g clip-path="url(#clip0_4040_5838)">
<rect width="144" height="144" fill="#5865F2"/>
<path fill-rule="evenodd" clip-rule="evenodd" d="M0 63.0719V143.722C0.214 143.816 0.428 143.908 0.642 144H13.466C14.811 141.921 16.048 139.773 17.167 137.555C17.271 137.351 17.172 137.108 16.959 137.027C13.696 135.789 10.588 134.279 7.599 132.565C7.362 132.427 7.343 132.089 7.561 131.927C8.19 131.455 8.819 130.965 9.42 130.47C9.528 130.379 9.68 130.36 9.808 130.417C29.446 139.384 50.708 139.384 70.115 130.417C70.243 130.356 70.394 130.375 70.507 130.465C71.108 130.96 71.737 131.455 72.371 131.927C72.589 132.089 72.574 132.427 72.338 132.565C69.349 134.312 66.241 135.789 62.973 137.022C62.76 137.103 62.665 137.351 62.769 137.555C63.913 139.771 65.16 141.92 66.498 144H79.323C85.887 141.195 92.536 137.504 99.327 132.517C99.417 132.451 99.474 132.351 99.483 132.241C101.985 106.357 95.292 83.8719 81.741 63.9389C81.708 63.8729 81.651 63.8249 81.585 63.7969C73.937 60.2869 65.735 57.7019 57.159 56.2209C57.003 56.1919 56.847 56.2639 56.767 56.4059C55.712 58.2829 54.544 60.7299 53.725 62.6539C44.502 61.2729 35.326 61.2729 26.292 62.6539C25.473 60.6869 24.262 58.2829 23.203 56.4059C23.122 56.2679 22.966 56.1969 22.81 56.2209C14.839 57.5939 7.188 59.9259 0 63.0719ZM20.1 118.604C14.187 118.604 9.316 113.175 9.316 106.509C9.316 99.8429 14.093 94.4139 20.1 94.4139C26.154 94.4139 30.979 99.8899 30.884 106.509C30.884 113.175 26.107 118.604 20.1 118.604ZM59.974 118.604C54.061 118.604 49.189 113.175 49.189 106.509C49.189 99.8429 53.967 94.4139 59.974 94.4139C66.028 94.4139 70.853 99.8899 70.758 106.509C70.758 113.175 66.028 118.604 59.974 118.604Z" fill="black" fill-opacity="0.15"/>
<path d="M80.4853 45.3948C82.7357 47.6453 84 50.6975 84 53.8801V65.7601C84 68.9427 82.7357 71.995 80.4853 74.2454C78.2348 76.4958 75.1826 77.7601 72 77.7601C68.8174 77.7601 65.7652 76.4958 63.5147 74.2454C61.2643 71.995 60 68.9427 60 65.7601V53.8801C60 50.6975 61.2643 47.6453 63.5147 45.3948C65.7652 43.1444 68.8174 41.8801 72 41.8801C75.1826 41.8801 78.2348 43.1444 80.4853 45.3948Z" fill="white"/>
<path d="M54 65.7601C54 64.1032 52.6569 62.7601 51 62.7601C49.3431 62.7601 48 64.1032 48 65.7601C48 72.1253 50.5286 78.2298 55.0294 82.7307C58.8173 86.5185 63.741 88.9095 69 89.572V95.7601H63C62.2043 95.7601 61.4413 96.0762 60.8787 96.6388C60.3161 97.2014 60 97.9645 60 98.7601C60 99.5558 60.3161 100.319 60.8787 100.881C61.4413 101.444 62.2043 101.76 63 101.76H81C81.7957 101.76 82.5587 101.444 83.1213 100.881C83.6839 100.319 84 99.5558 84 98.7601C84 97.9645 83.6839 97.2014 83.1213 96.6388C82.5587 96.0762 81.7957 95.7601 81 95.7601H75V89.572C80.259 88.9095 85.1827 86.5185 88.9706 82.7307C93.4714 78.2298 96 72.1253 96 65.7601C96 64.1032 94.6569 62.7601 93 62.7601C91.3431 62.7601 90 64.1032 90 65.7601C90 70.534 88.1036 75.1124 84.7279 78.488C81.3523 81.8637 76.7739 83.7601 72 83.7601C67.2261 83.7601 62.6477 81.8637 59.2721 78.488C55.8964 75.1124 54 70.534 54 65.7601Z" fill="white"/>
</g>
<defs>
<clipPath id="clip0_4040_5838">
<rect width="144" height="144" fill="white"/>
</clipPath>
</defs>
</svg>
