<svg width="144" height="144" viewBox="0 0 144 144" fill="none" xmlns="http://www.w3.org/2000/svg">
<g clip-path="url(#clip0_4040_5876)">
<rect width="144" height="144" fill="#5865F2"/>
<path fill-rule="evenodd" clip-rule="evenodd" d="M0 63.0719V143.722C0.214 143.816 0.428 143.908 0.642 144H13.466C14.811 141.921 16.048 139.773 17.167 137.555C17.271 137.351 17.172 137.108 16.959 137.027C13.696 135.789 10.588 134.279 7.599 132.565C7.362 132.427 7.343 132.089 7.561 131.927C8.19 131.455 8.819 130.965 9.42 130.47C9.528 130.379 9.68 130.36 9.808 130.417C29.446 139.384 50.708 139.384 70.115 130.417C70.243 130.356 70.394 130.375 70.507 130.465C71.108 130.96 71.737 131.455 72.371 131.927C72.589 132.089 72.574 132.427 72.338 132.565C69.349 134.312 66.241 135.789 62.973 137.022C62.76 137.103 62.665 137.351 62.769 137.555C63.913 139.771 65.16 141.92 66.498 144H79.323C85.887 141.195 92.536 137.504 99.327 132.517C99.417 132.451 99.474 132.351 99.483 132.241C101.985 106.357 95.292 83.8719 81.741 63.9389C81.708 63.8729 81.651 63.8249 81.585 63.7969C73.937 60.2869 65.735 57.7019 57.159 56.2209C57.003 56.1919 56.847 56.2639 56.767 56.4059C55.712 58.2829 54.544 60.7299 53.725 62.6539C44.502 61.2729 35.326 61.2729 26.292 62.6539C25.473 60.6869 24.262 58.2829 23.203 56.4059C23.122 56.2679 22.966 56.1969 22.81 56.2209C14.839 57.5939 7.188 59.9259 0 63.0719ZM20.1 118.604C14.187 118.604 9.316 113.175 9.316 106.509C9.316 99.8429 14.093 94.4139 20.1 94.4139C26.154 94.4139 30.979 99.8899 30.884 106.509C30.884 113.175 26.107 118.604 20.1 118.604ZM59.974 118.604C54.061 118.604 49.189 113.175 49.189 106.509C49.189 99.8429 53.967 94.4139 59.974 94.4139C66.028 94.4139 70.853 99.8899 70.758 106.509C70.758 113.175 66.028 118.604 59.974 118.604Z" fill="black" fill-opacity="0.15"/>
<path d="M65.1 44.6701C65.3717 44.5549 65.6132 44.3785 65.8057 44.1548C65.9982 43.9311 66.1366 43.666 66.21 43.3801C66.5554 42.1091 67.3095 40.987 68.3559 40.187C69.4023 39.387 70.6828 38.9536 72 38.9536C73.3172 38.9536 74.5977 39.387 75.6441 40.187C76.6905 40.987 77.4446 42.1091 77.79 43.3801C77.94 43.9801 78.36 44.4601 78.93 44.6701C83.0424 46.1077 86.6059 48.7887 89.1268 52.3417C91.6478 55.8946 93.0013 60.1437 93 64.5001V70.7701C93 71.1301 93.15 71.4901 93.39 71.7601L96.69 75.4201C98.1794 77.0752 99.0024 79.2236 99 81.4501V82.2901C99 84.3001 97.98 86.1601 96.15 86.9701C92.22 88.7701 84.15 91.5001 72 91.5001C59.85 91.5001 51.78 88.7701 47.85 87.0001C46.02 86.1601 45 84.3001 45 82.2901V81.4501C45.005 79.2339 45.8275 77.0975 47.31 75.4501L50.61 71.7601C50.8566 71.4889 50.9953 71.1367 51 70.7701V64.5001C51.0008 60.14 52.3588 55.8883 54.8854 52.3349C57.412 48.7816 60.982 46.1027 65.1 44.6701ZM63.54 95.5201C63.4721 95.5116 63.4032 95.5176 63.3378 95.5379C63.2725 95.5581 63.2122 95.5921 63.1611 95.6376C63.11 95.683 63.0691 95.7389 63.0413 95.8014C63.0136 95.864 62.9995 95.9317 63 96.0001C63 98.3871 63.9482 100.676 65.636 102.364C67.3239 104.052 69.6131 105 72 105C74.3869 105 76.6761 104.052 78.364 102.364C80.0518 100.676 81 98.3871 81 96.0001C81 95.7001 80.73 95.4901 80.46 95.5201C74.8383 96.1618 69.1617 96.1618 63.54 95.5201Z" fill="white"/>
</g>
<defs>
<clipPath id="clip0_4040_5876">
<rect width="144" height="144" fill="white"/>
</clipPath>
</defs>
</svg>
