<svg width="144" height="144" viewBox="0 0 144 144" fill="none" xmlns="http://www.w3.org/2000/svg">
<g clip-path="url(#clip0_4041_5909)">
<rect width="144" height="144" fill="#5865F2"/>
<path fill-rule="evenodd" clip-rule="evenodd" d="M0 63.0719V143.722C0.214 143.816 0.428 143.908 0.642 144H13.466C14.811 141.921 16.048 139.773 17.167 137.555C17.271 137.351 17.172 137.108 16.959 137.027C13.696 135.789 10.588 134.279 7.599 132.565C7.362 132.427 7.343 132.089 7.561 131.927C8.19 131.455 8.819 130.965 9.42 130.47C9.528 130.379 9.68 130.36 9.808 130.417C29.446 139.384 50.708 139.384 70.115 130.417C70.243 130.356 70.394 130.375 70.507 130.465C71.108 130.96 71.737 131.455 72.371 131.927C72.589 132.089 72.574 132.427 72.338 132.565C69.349 134.312 66.241 135.789 62.973 137.022C62.76 137.103 62.665 137.351 62.769 137.555C63.913 139.771 65.16 141.92 66.498 144H79.323C85.887 141.195 92.536 137.504 99.327 132.517C99.417 132.451 99.474 132.351 99.483 132.241C101.985 106.357 95.292 83.8719 81.741 63.9389C81.708 63.8729 81.651 63.8249 81.585 63.7969C73.937 60.2869 65.735 57.7019 57.159 56.2209C57.003 56.1919 56.847 56.2639 56.767 56.4059C55.712 58.2829 54.544 60.7299 53.725 62.6539C44.502 61.2729 35.326 61.2729 26.292 62.6539C25.473 60.6869 24.262 58.2829 23.203 56.4059C23.122 56.2679 22.966 56.1969 22.81 56.2209C14.839 57.5939 7.188 59.9259 0 63.0719ZM20.1 118.604C14.187 118.604 9.316 113.175 9.316 106.509C9.316 99.8429 14.093 94.4139 20.1 94.4139C26.154 94.4139 30.979 99.8899 30.884 106.509C30.884 113.175 26.107 118.604 20.1 118.604ZM59.974 118.604C54.061 118.604 49.189 113.175 49.189 106.509C49.189 99.8429 53.967 94.4139 59.974 94.4139C66.028 94.4139 70.853 99.8899 70.758 106.509C70.758 113.175 66.028 118.604 59.974 118.604Z" fill="black" fill-opacity="0.15"/>
<path d="M93 57.1201C93 53.9375 91.7357 50.8853 89.4853 48.6348C87.2348 46.3844 84.1826 45.1201 81 45.1201C77.8174 45.1201 74.7652 46.3844 72.5147 48.6348C70.2643 50.8853 69 53.9375 69 57.1201V69.0001C69 72.1827 70.2643 75.235 72.5147 77.4854C74.7652 79.7358 77.8174 81.0001 81 81.0001C84.1826 81.0001 87.2348 79.7358 89.4853 77.4854C91.7357 75.235 93 72.1827 93 69.0001V57.1201Z" fill="white"/>
<path d="M60 66.0001C61.6569 66.0001 63 67.3432 63 69.0001C63 73.774 64.8964 78.3524 68.2721 81.728C71.6477 85.1037 76.2261 87.0001 81 87.0001C85.7739 87.0001 90.3523 85.1037 93.7279 81.728C97.1036 78.3524 99 73.774 99 69.0001C99 67.3432 100.343 66.0001 102 66.0001C103.657 66.0001 105 67.3432 105 69.0001C105 75.3653 102.471 81.4698 97.9706 85.9707C94.1827 89.7585 89.259 92.1495 84 92.8119V99.0001H90C90.7957 99.0001 91.5587 99.3162 92.1213 99.8788C92.6839 100.441 93 101.204 93 102C93 102.796 92.6839 103.559 92.1213 104.121C91.5587 104.684 90.7957 105 90 105H72C71.2043 105 70.4413 104.684 69.8787 104.121C69.3161 103.559 69 102.796 69 102C69 101.204 69.3161 100.441 69.8787 99.8788C70.4413 99.3162 71.2043 99.0001 72 99.0001H78V92.8119C72.741 92.1495 67.8173 89.7585 64.0294 85.9707C59.5286 81.4698 57 75.3653 57 69.0001C57 67.3432 58.3431 66.0001 60 66.0001Z" fill="white"/>
<path d="M39.8787 65.1213C39.3161 64.5587 39 63.7956 39 63C39 62.2044 39.3161 61.4413 39.8787 60.8787C40.4413 60.3161 41.2043 60 42 60C46.7739 60 51.3523 58.1036 54.7279 54.7279C58.1036 51.3523 60 46.7739 60 42C60 41.2043 60.3161 40.4413 60.8787 39.8787C61.4413 39.3161 62.2043 39 63 39C63.7957 39 64.5587 39.3161 65.1213 39.8787C65.6839 40.4413 66 41.2043 66 42C66 48.3652 63.4714 54.4697 58.9706 58.9706C54.4697 63.4714 48.3652 66 42 66C41.2043 66 40.4413 65.6839 39.8787 65.1213Z" fill="white"/>
<path d="M39.8787 53.1213C39.3161 52.5587 39 51.7956 39 51C39 50.2044 39.3161 49.4413 39.8787 48.8787C40.4413 48.3161 41.2043 48 42 48C43.5913 48 45.1174 47.3679 46.2426 46.2426C47.3679 45.1174 48 43.5913 48 42C48 41.2043 48.3161 40.4413 48.8787 39.8787C49.4413 39.3161 50.2043 39 51 39C51.7957 39 52.5587 39.3161 53.1213 39.8787C53.6839 40.4413 54 41.2043 54 42C54 45.1826 52.7357 48.2348 50.4853 50.4853C48.2348 52.7357 45.1826 54 42 54C41.2043 54 40.4413 53.6839 39.8787 53.1213Z" fill="white"/>
</g>
<defs>
<clipPath id="clip0_4041_5909">
<rect width="144" height="144" fill="white"/>
</clipPath>
</defs>
</svg>
