<svg width="144" height="144" viewBox="0 0 144 144" fill="none" xmlns="http://www.w3.org/2000/svg">
<g clip-path="url(#clip0_4041_5948)">
<rect width="144" height="144" fill="#23A55A"/>
<path fill-rule="evenodd" clip-rule="evenodd" d="M0 63.0719V143.722C0.214 143.816 0.428 143.908 0.642 144H13.466C14.811 141.921 16.048 139.773 17.167 137.555C17.271 137.351 17.172 137.108 16.959 137.027C13.696 135.789 10.588 134.279 7.599 132.565C7.362 132.427 7.343 132.089 7.561 131.927C8.19 131.455 8.819 130.965 9.42 130.47C9.528 130.379 9.68 130.36 9.808 130.417C29.446 139.384 50.708 139.384 70.115 130.417C70.243 130.356 70.394 130.375 70.507 130.465C71.108 130.96 71.737 131.455 72.371 131.927C72.589 132.089 72.574 132.427 72.338 132.565C69.349 134.312 66.241 135.789 62.973 137.022C62.76 137.103 62.665 137.351 62.769 137.555C63.913 139.771 65.16 141.92 66.498 144H79.323C85.887 141.195 92.536 137.504 99.327 132.517C99.417 132.451 99.474 132.351 99.483 132.241C101.985 106.357 95.292 83.8719 81.741 63.9389C81.708 63.8729 81.651 63.8249 81.585 63.7969C73.937 60.2869 65.735 57.7019 57.159 56.2209C57.003 56.1919 56.847 56.2639 56.767 56.4059C55.712 58.2829 54.544 60.7299 53.725 62.6539C44.502 61.2729 35.326 61.2729 26.292 62.6539C25.473 60.6869 24.262 58.2829 23.203 56.4059C23.122 56.2679 22.966 56.1969 22.81 56.2209C14.839 57.5939 7.188 59.9259 0 63.0719ZM20.1 118.604C14.187 118.604 9.316 113.175 9.316 106.509C9.316 99.8429 14.093 94.4139 20.1 94.4139C26.154 94.4139 30.979 99.8899 30.884 106.509C30.884 113.175 26.107 118.604 20.1 118.604ZM59.974 118.604C54.061 118.604 49.189 113.175 49.189 106.509C49.189 99.8429 53.967 94.4139 59.974 94.4139C66.028 94.4139 70.853 99.8899 70.758 106.509C70.758 113.175 66.028 118.604 59.974 118.604Z" fill="black" fill-opacity="0.15"/>
<path d="M60 44.9399C60 43.3486 59.3679 41.8225 58.2426 40.6973C57.1174 39.5721 55.5913 38.9399 54 38.9399C52.4087 38.9399 50.8826 39.5721 49.7574 40.6973C48.6321 41.8225 48 43.3486 48 44.9399V50.8799C48 52.4712 48.6321 53.9974 49.7574 55.1226C50.8826 56.2478 52.4087 56.8799 54 56.8799C55.5913 56.8799 57.1174 56.2478 58.2426 55.1226C59.3679 53.9974 60 52.4712 60 50.8799V44.9399Z" fill="white"/>
<path d="M43.5 49.3799C44.3284 49.3799 45 50.0515 45 50.8799C45 53.2669 45.9482 55.5561 47.636 57.2439C49.3239 58.9317 51.6131 59.8799 54 59.8799C56.3869 59.8799 58.6761 58.9317 60.364 57.2439C62.0518 55.5561 63 53.2669 63 50.8799C63 50.0515 63.6716 49.3799 64.5 49.3799C65.3284 49.3799 66 50.0515 66 50.8799C66 54.0625 64.7357 57.1148 62.4853 59.3652C60.5913 61.2592 58.1295 62.4546 55.5 62.7859V65.8799H58.5C58.8978 65.8799 59.2794 66.038 59.5607 66.3193C59.842 66.6006 60 66.9821 60 67.3799C60 67.7778 59.842 68.1593 59.5607 68.4406C59.2794 68.7219 58.8978 68.8799 58.5 68.8799H49.5C49.1022 68.8799 48.7206 68.7219 48.4393 68.4406C48.158 68.1593 48 67.7778 48 67.3799C48 66.9821 48.158 66.6006 48.4393 66.3193C48.7206 66.038 49.1022 65.8799 49.5 65.8799H52.5V62.7859C49.8705 62.4546 47.4087 61.2592 45.5147 59.3652C43.2643 57.1148 42 54.0625 42 50.8799C42 50.0515 42.6716 49.3799 43.5 49.3799Z" fill="white"/>
<path d="M72 85.5V60C72 58.3431 73.3431 57 75 57H75.1933C76.7727 57 78.0816 58.2245 78.1867 59.8004L79.2135 75.2032C79.2695 76.0423 80.452 76.1679 80.683 75.3594L81.9249 71.0127C82.2653 69.8214 83.3542 69 84.5932 69C85.9742 69 87.1451 70.0155 87.3404 71.3826L88.1032 76.7225C88.2118 77.4825 89.2569 77.6078 89.542 76.8949L90.7576 73.8559C91.206 72.735 92.2916 72 93.4989 72C94.9422 72 96.1739 73.0434 96.4112 74.4671L97.1208 78.725C97.2402 79.4415 98.2066 79.5868 98.5314 78.9371L99.7313 76.5374C100.202 75.5952 101.165 75 102.219 75C103.755 75 105 76.2452 105 77.7812V81.158C105 85.0274 104.376 88.8714 103.153 92.5422L101.735 96.7947C100.102 101.695 95.5161 105 90.3509 105H82.8124C78.8608 105 75.1625 103.055 72.9239 99.7983L61.6945 83.4647C60.7626 82.1092 61.12 80.2533 62.4887 79.3409C63.6582 78.5612 65.2154 78.7154 66.2093 79.7093L72 85.5Z" fill="white"/>
</g>
<defs>
<clipPath id="clip0_4041_5948">
<rect width="144" height="144" fill="white"/>
</clipPath>
</defs>
</svg>
