<svg width="144" height="144" viewBox="0 0 144 144" fill="none" xmlns="http://www.w3.org/2000/svg">
<g clip-path="url(#clip0_4041_5949)">
<rect width="144" height="144" fill="#5865F2"/>
<path fill-rule="evenodd" clip-rule="evenodd" d="M0 63.0719V143.722C0.214 143.816 0.428 143.908 0.642 144H13.466C14.811 141.921 16.048 139.773 17.167 137.555C17.271 137.351 17.172 137.108 16.959 137.027C13.696 135.789 10.588 134.279 7.599 132.565C7.362 132.427 7.343 132.089 7.561 131.927C8.19 131.455 8.819 130.965 9.42 130.47C9.528 130.379 9.68 130.36 9.808 130.417C29.446 139.384 50.708 139.384 70.115 130.417C70.243 130.356 70.394 130.375 70.507 130.465C71.108 130.96 71.737 131.455 72.371 131.927C72.589 132.089 72.574 132.427 72.338 132.565C69.349 134.312 66.241 135.789 62.973 137.022C62.76 137.103 62.665 137.351 62.769 137.555C63.913 139.771 65.16 141.92 66.498 144H79.323C85.887 141.195 92.536 137.504 99.327 132.517C99.417 132.451 99.474 132.351 99.483 132.241C101.985 106.357 95.292 83.8719 81.741 63.9389C81.708 63.8729 81.651 63.8249 81.585 63.7969C73.937 60.2869 65.735 57.7019 57.159 56.2209C57.003 56.1919 56.847 56.2639 56.767 56.4059C55.712 58.2829 54.544 60.7299 53.725 62.6539C44.502 61.2729 35.326 61.2729 26.292 62.6539C25.473 60.6869 24.262 58.2829 23.203 56.4059C23.122 56.2679 22.966 56.1969 22.81 56.2209C14.839 57.5939 7.188 59.9259 0 63.0719ZM20.1 118.604C14.187 118.604 9.316 113.175 9.316 106.509C9.316 99.8429 14.093 94.4139 20.1 94.4139C26.154 94.4139 30.979 99.8899 30.884 106.509C30.884 113.175 26.107 118.604 20.1 118.604ZM59.974 118.604C54.061 118.604 49.189 113.175 49.189 106.509C49.189 99.8429 53.967 94.4139 59.974 94.4139C66.028 94.4139 70.853 99.8899 70.758 106.509C70.758 113.175 66.028 118.604 59.974 118.604Z" fill="black" fill-opacity="0.15"/>
<path d="M70.0607 37.9393C70.6464 38.5251 70.6464 39.4749 70.0607 40.0607L40.0607 70.0607C39.4749 70.6464 38.5251 70.6464 37.9393 70.0607C37.3536 69.4749 37.3536 68.5251 37.9393 67.9393L67.9393 37.9393C68.5251 37.3536 69.4749 37.3536 70.0607 37.9393Z" fill="white"/>
<path d="M48.4578 53.1884C48.4717 53.2217 48.4858 53.2549 48.5002 53.2879L59.349 42.3418C59.0654 41.7837 58.6936 41.2683 58.2426 40.8174C57.1174 39.6922 55.5913 39.06 54 39.06C52.4087 39.06 50.8826 39.6922 49.7574 40.8174C48.6321 41.9426 48 43.4687 48 45.06V50.895C48.0004 51.6821 48.156 52.4614 48.4578 53.1884Z" fill="white"/>
<path d="M62.9963 51.1543L64.7235 49.4116C65.4459 49.5195 66 50.1425 66 50.895C66 52.4709 65.6896 54.0313 65.0866 55.4872C64.4835 56.9431 63.5996 58.266 62.4853 59.3803C61.371 60.4946 60.0481 61.3785 58.5922 61.9816C57.6006 62.3923 56.5605 62.6673 55.5 62.8009V65.88H58.5C58.8978 65.88 59.2794 66.0381 59.5607 66.3194C59.842 66.6007 60 66.9822 60 67.38C60 67.7778 59.842 68.1594 59.5607 68.4407C59.2794 68.722 58.8978 68.88 58.5 68.88H49.5C49.1022 68.88 48.7206 68.722 48.4393 68.4407C48.158 68.1594 48 67.7778 48 67.38C48 66.9822 48.158 66.6007 48.4393 66.3194C48.7206 66.0381 49.1022 65.88 49.5 65.88H52.5V62.8009C52.1982 62.7629 51.8981 62.7134 51.6002 62.6526L54.3396 59.8886C55.4056 59.8484 56.4569 59.6189 57.4442 59.21C58.5361 58.7577 59.5282 58.0947 60.364 57.259C61.1997 56.4233 61.8626 55.4311 62.3149 54.3392C62.7341 53.3271 62.9648 52.2478 62.9963 51.1543Z" fill="white"/>
<path d="M46.2826 55.5255L44.1207 57.7068C43.6424 57.0131 43.2374 56.2694 42.9134 55.4872C42.3104 54.0313 42 52.4709 42 50.895C42 50.0666 42.6716 49.395 43.5 49.395C44.3284 49.395 45 50.0666 45 50.895C45 52.0769 45.2328 53.2473 45.6851 54.3392C45.8551 54.7497 46.055 55.1462 46.2826 55.5255Z" fill="white"/>
<path d="M72 85.5V60C72 58.3431 73.3431 57 75 57H75.1933C76.7727 57 78.0816 58.2245 78.1867 59.8004L79.2135 75.2032C79.2695 76.0423 80.452 76.1679 80.683 75.3594L81.9249 71.0127C82.2653 69.8214 83.3542 69 84.5932 69C85.9742 69 87.1451 70.0155 87.3404 71.3826L88.1032 76.7225C88.2118 77.4825 89.2569 77.6078 89.542 76.8949L90.7576 73.8559C91.206 72.735 92.2916 72 93.4989 72C94.9422 72 96.1739 73.0434 96.4112 74.4671L97.1208 78.725C97.2402 79.4415 98.2066 79.5868 98.5314 78.9371L99.7313 76.5374C100.202 75.5952 101.165 75 102.219 75C103.755 75 105 76.2452 105 77.7812V81.158C105 85.0274 104.376 88.8714 103.153 92.5422L101.735 96.7947C100.102 101.695 95.5161 105 90.3509 105H82.8124C78.8608 105 75.1625 103.055 72.9239 99.7983L61.6945 83.4647C60.7626 82.1092 61.12 80.2533 62.4887 79.3409C63.6582 78.5612 65.2154 78.7154 66.2093 79.7093L72 85.5Z" fill="white"/>
</g>
<defs>
<clipPath id="clip0_4041_5949">
<rect width="144" height="144" fill="white"/>
</clipPath>
</defs>
</svg>
