<svg width="144" height="144" viewBox="0 0 144 144" fill="none" xmlns="http://www.w3.org/2000/svg">
<g clip-path="url(#clip0_4041_6027)">
<rect width="144" height="144" fill="#5865F2"/>
<path fill-rule="evenodd" clip-rule="evenodd" d="M0 63.0719V143.722C0.214 143.816 0.428 143.908 0.642 144H13.466C14.811 141.921 16.048 139.773 17.167 137.555C17.271 137.351 17.172 137.108 16.959 137.027C13.696 135.789 10.588 134.279 7.599 132.565C7.362 132.427 7.343 132.089 7.561 131.927C8.19 131.455 8.819 130.965 9.42 130.47C9.528 130.379 9.68 130.36 9.808 130.417C29.446 139.384 50.708 139.384 70.115 130.417C70.243 130.356 70.394 130.375 70.507 130.465C71.108 130.96 71.737 131.455 72.371 131.927C72.589 132.089 72.574 132.427 72.338 132.565C69.349 134.312 66.241 135.789 62.973 137.022C62.76 137.103 62.665 137.351 62.769 137.555C63.913 139.771 65.16 141.92 66.498 144H79.323C85.887 141.195 92.536 137.504 99.327 132.517C99.417 132.451 99.474 132.351 99.483 132.241C101.985 106.357 95.292 83.8719 81.741 63.9389C81.708 63.8729 81.651 63.8249 81.585 63.7969C73.937 60.2869 65.735 57.7019 57.159 56.2209C57.003 56.1919 56.847 56.2639 56.767 56.4059C55.712 58.2829 54.544 60.7299 53.725 62.6539C44.502 61.2729 35.326 61.2729 26.292 62.6539C25.473 60.6869 24.262 58.2829 23.203 56.4059C23.122 56.2679 22.966 56.1969 22.81 56.2209C14.839 57.5939 7.188 59.9259 0 63.0719ZM20.1 118.604C14.187 118.604 9.316 113.175 9.316 106.509C9.316 99.8429 14.093 94.4139 20.1 94.4139C26.154 94.4139 30.979 99.8899 30.884 106.509C30.884 113.175 26.107 118.604 20.1 118.604ZM59.974 118.604C54.061 118.604 49.189 113.175 49.189 106.509C49.189 99.8429 53.967 94.4139 59.974 94.4139C66.028 94.4139 70.853 99.8899 70.758 106.509C70.758 113.175 66.028 118.604 59.974 118.604Z" fill="black" fill-opacity="0.15"/>
<path d="M63.009 43.2118L67.1184 46.9083C67.6986 47.4303 67.7707 48.305 67.3835 48.9826C66.4969 50.5343 66 52.3194 66 54.1918V61.7878L65.955 61.7488C64.3106 60.2978 62.1931 59.497 60 59.497C57.8069 59.497 55.6893 60.2978 54.045 61.7488L47.49 67.5298C47.2736 67.7199 47.0071 67.8437 46.7223 67.8864C46.4374 67.9291 46.1463 67.8888 45.8838 67.7705C45.6212 67.6522 45.3982 67.4608 45.2415 67.2191C45.0848 66.9775 45.0009 66.6958 45 66.4078V56.0008C45.001 55.3709 45.1342 54.7482 45.391 54.1731C45.6479 53.5979 46.0226 53.083 46.491 52.6618L56.991 43.2118C57.8171 42.4689 58.8889 42.0579 60 42.0579C61.1111 42.0579 62.1829 42.4689 63.009 43.2118Z" fill="white"/>
<path d="M81.4713 75.4447C84.7806 73.2671 88.7423 72 93 72C96.2208 72 99.2722 72.7251 102 74.0209V46.8418C102 46.1233 101.828 45.4151 101.498 44.7767C101.168 44.1382 100.691 43.588 100.105 43.1721C99.5186 42.7562 98.8416 42.4867 98.1301 42.3861C97.4186 42.2855 96.6933 42.3567 96.015 42.5938L75.015 49.9438C74.134 50.2518 73.3705 50.8261 72.8303 51.5872C72.2902 52.3483 72 53.2585 72 54.1918V67.0858L81.4713 75.4447Z" fill="white"/>
<path d="M72 93C72 87.8388 73.8619 83.1125 76.9507 79.456L61.9829 66.2518C61.4348 65.7684 60.7291 65.5017 59.9984 65.5017C59.2676 65.5017 58.5619 65.7684 58.0139 66.2518L40.4489 81.7498C38.4239 83.5378 39.6119 86.8438 42.2489 86.9938L43.0409 96.4978C43.1658 97.9977 43.8498 99.3958 44.9573 100.415C46.0648 101.434 47.5148 102 49.0199 102H70.9799C71.9406 102 72.879 101.769 73.7201 101.337C72.6134 98.7816 72 95.9624 72 93Z" fill="white"/>
<path fill-rule="evenodd" clip-rule="evenodd" d="M93 108C101.284 108 108 101.284 108 93C108 84.7157 101.284 78 93 78C84.7157 78 78 84.7157 78 93C78 101.284 84.7157 108 93 108ZM96 93C96 91.3431 94.6569 90 93 90C91.3431 90 90 91.3431 90 93V102C90 103.657 91.3431 105 93 105C94.6569 105 96 103.657 96 102V93ZM96 84C96 85.6569 94.6569 87 93 87C91.3431 87 90 85.6569 90 84C90 82.3431 91.3431 81 93 81C94.6569 81 96 82.3431 96 84Z" fill="white"/>
</g>
<defs>
<clipPath id="clip0_4041_6027">
<rect width="144" height="144" fill="white"/>
</clipPath>
</defs>
</svg>
