<svg width="144" height="144" viewBox="0 0 144 144" fill="none" xmlns="http://www.w3.org/2000/svg">
<g clip-path="url(#clip0_4041_6037)">
<rect width="144" height="144" fill="#5865F2"/>
<path fill-rule="evenodd" clip-rule="evenodd" d="M0 63.0719V143.722C0.214 143.816 0.428 143.908 0.642 144H13.466C14.811 141.921 16.048 139.773 17.167 137.555C17.271 137.351 17.172 137.108 16.959 137.027C13.696 135.789 10.588 134.279 7.599 132.565C7.362 132.427 7.343 132.089 7.561 131.927C8.19 131.455 8.819 130.965 9.42 130.47C9.528 130.379 9.68 130.36 9.808 130.417C29.446 139.384 50.708 139.384 70.115 130.417C70.243 130.356 70.394 130.375 70.507 130.465C71.108 130.96 71.737 131.455 72.371 131.927C72.589 132.089 72.574 132.427 72.338 132.565C69.349 134.312 66.241 135.789 62.973 137.022C62.76 137.103 62.665 137.351 62.769 137.555C63.913 139.771 65.16 141.92 66.498 144H79.323C85.887 141.195 92.536 137.504 99.327 132.517C99.417 132.451 99.474 132.351 99.483 132.241C101.985 106.357 95.292 83.8719 81.741 63.9389C81.708 63.8729 81.651 63.8249 81.585 63.7969C73.937 60.2869 65.735 57.7019 57.159 56.2209C57.003 56.1919 56.847 56.2639 56.767 56.4059C55.712 58.2829 54.544 60.7299 53.725 62.6539C44.502 61.2729 35.326 61.2729 26.292 62.6539C25.473 60.6869 24.262 58.2829 23.203 56.4059C23.122 56.2679 22.966 56.1969 22.81 56.2209C14.839 57.5939 7.188 59.9259 0 63.0719ZM20.1 118.604C14.187 118.604 9.316 113.175 9.316 106.509C9.316 99.8429 14.093 94.4139 20.1 94.4139C26.154 94.4139 30.979 99.8899 30.884 106.509C30.884 113.175 26.107 118.604 20.1 118.604ZM59.974 118.604C54.061 118.604 49.189 113.175 49.189 106.509C49.189 99.8429 53.967 94.4139 59.974 94.4139C66.028 94.4139 70.853 99.8899 70.758 106.509C70.758 113.175 66.028 118.604 59.974 118.604Z" fill="black" fill-opacity="0.15"/>
<path d="M80.9104 42.7276C81.3123 41.1202 80.335 39.4914 78.7276 39.0895C77.1202 38.6877 75.4914 39.665 75.0896 41.2724L72.0896 53.2724C71.6877 54.8798 72.665 56.5086 74.2724 56.9104C75.8798 57.3123 77.5086 56.335 77.9104 54.7276L80.9104 42.7276Z" fill="white"/>
<path d="M62.8461 44.0513C62.3221 42.4795 60.6231 41.63 59.0513 42.1539C57.4795 42.6779 56.63 44.3768 57.1539 45.9487L60.1539 54.9487C60.6779 56.5205 62.3769 57.37 63.9487 56.846C65.5205 56.3221 66.37 54.6231 65.846 53.0513L62.8461 44.0513Z" fill="white"/>
<path d="M98.1213 50.1213C99.2929 48.9497 99.2929 47.0502 98.1213 45.8787C96.9497 44.7071 95.0503 44.7071 93.8787 45.8787L81.8787 57.8787C80.7071 59.0502 80.7071 60.9497 81.8787 62.1213C83.0503 63.2929 84.9497 63.2929 86.1213 62.1213L98.1213 50.1213Z" fill="white"/>
<path d="M102.728 68.9104C104.335 68.5086 105.312 66.8798 104.91 65.2724C104.509 63.665 102.88 62.6877 101.272 63.0896L89.2724 66.0896C87.665 66.4914 86.6877 68.1202 87.0896 69.7276C87.4914 71.335 89.1202 72.3123 90.7276 71.9104L102.728 68.9104Z" fill="white"/>
<path d="M90.9487 78.1539C89.3769 77.63 87.6779 78.4795 87.1539 80.0513C86.63 81.6231 87.4795 83.3221 89.0513 83.846L98.0513 86.846C99.6231 87.37 101.322 86.5205 101.846 84.9487C102.37 83.3768 101.521 81.6779 99.9487 81.1539L90.9487 78.1539Z" fill="white"/>
<path fill-rule="evenodd" clip-rule="evenodd" d="M47.5715 62.571C52.9145 57.231 64.8245 60.48 74.1725 69.831L74.1695 69.828C83.5205 79.179 86.7695 91.089 81.4295 96.429C79.8035 98.058 77.5685 98.886 74.9825 98.991L75.0005 99L48.2345 102.489C47.323 102.608 46.3964 102.516 45.5262 102.22C44.6559 101.924 43.8653 101.432 43.2154 100.782C42.5654 100.132 42.0735 99.3415 41.7775 98.4713C41.4816 97.601 41.3895 96.6744 41.5085 95.763L45.0005 69L45.0125 69.021C45.1175 66.435 45.9455 64.197 47.5715 62.571ZM77.5205 86.208C76.5275 82.575 74.0045 78.147 69.9305 74.07V74.073C65.8565 69.996 61.4285 67.473 57.7925 66.483C53.9675 65.439 52.3085 66.324 51.8165 66.819C51.3245 67.308 50.4365 68.967 51.4805 72.795C52.4705 76.431 54.9965 80.859 59.0705 84.93C63.1445 89.007 67.5725 91.53 71.2085 92.52C75.0335 93.564 76.6925 92.676 77.1845 92.184C77.6765 91.692 78.5645 90.036 77.5205 86.208Z" fill="white"/>
</g>
<defs>
<clipPath id="clip0_4041_6037">
<rect width="144" height="144" fill="white"/>
</clipPath>
</defs>
</svg>
