<svg width="144" height="144" viewBox="0 0 144 144" fill="none" xmlns="http://www.w3.org/2000/svg">
<g clip-path="url(#clip0_4039_12838)">
<rect width="144" height="144" fill="#23A55A"/>
<path fill-rule="evenodd" clip-rule="evenodd" d="M0 63.0719V143.722C0.214 143.816 0.428 143.908 0.642 144H13.466C14.811 141.921 16.048 139.773 17.167 137.555C17.271 137.351 17.172 137.108 16.959 137.027C13.696 135.789 10.588 134.279 7.599 132.565C7.362 132.427 7.343 132.089 7.561 131.927C8.19 131.455 8.819 130.965 9.42 130.47C9.528 130.379 9.68 130.36 9.808 130.417C29.446 139.384 50.708 139.384 70.115 130.417C70.243 130.356 70.394 130.375 70.507 130.465C71.108 130.96 71.737 131.455 72.371 131.927C72.589 132.089 72.574 132.427 72.338 132.565C69.349 134.312 66.241 135.789 62.973 137.022C62.76 137.103 62.665 137.351 62.769 137.555C63.913 139.771 65.16 141.92 66.498 144H79.323C85.887 141.195 92.536 137.504 99.327 132.517C99.417 132.451 99.474 132.351 99.483 132.241C101.985 106.357 95.292 83.8719 81.741 63.9389C81.708 63.8729 81.651 63.8249 81.585 63.7969C73.937 60.2869 65.735 57.7019 57.159 56.2209C57.003 56.1919 56.847 56.2639 56.767 56.4059C55.712 58.2829 54.544 60.7299 53.725 62.6539C44.502 61.2729 35.326 61.2729 26.292 62.6539C25.473 60.6869 24.262 58.2829 23.203 56.4059C23.122 56.2679 22.966 56.1969 22.81 56.2209C14.839 57.5939 7.188 59.9259 0 63.0719ZM20.1 118.604C14.187 118.604 9.316 113.175 9.316 106.509C9.316 99.8429 14.093 94.4139 20.1 94.4139C26.154 94.4139 30.979 99.8899 30.884 106.509C30.884 113.175 26.107 118.604 20.1 118.604ZM59.974 118.604C54.061 118.604 49.189 113.175 49.189 106.509C49.189 99.8429 53.967 94.4139 59.974 94.4139C66.028 94.4139 70.853 99.8899 70.758 106.509C70.758 113.175 66.028 118.604 59.974 118.604Z" fill="black" fill-opacity="0.15"/>
<path d="M75.2154 96.132C75.2154 97.02 75.9354 97.74 76.8264 97.74H81.6504C82.4867 97.7655 83.2802 98.1157 83.8628 98.7163C84.4453 99.3169 84.7711 100.121 84.7711 100.957C84.7711 101.794 84.4453 102.598 83.8628 103.199C83.2802 103.799 82.4867 104.149 81.6504 104.175H62.3454C61.509 104.149 60.7155 103.799 60.133 103.199C59.5504 102.598 59.2246 101.794 59.2246 100.957C59.2246 100.121 59.5504 99.3169 60.133 98.7163C60.7155 98.1157 61.509 97.7655 62.3454 97.74H67.1754C68.0604 97.74 68.7834 97.02 68.7834 96.132V89.697C68.7834 88.809 69.5034 88.086 70.3914 88.086H73.6074C74.4954 88.086 75.2184 88.806 75.2184 89.697V96.132H75.2154Z" fill="white"/>
<path fill-rule="evenodd" clip-rule="evenodd" d="M49.4752 39.825C46.9156 39.825 44.4608 40.8418 42.6509 42.6517C40.841 44.4616 39.8242 46.9163 39.8242 49.476V75.216C39.8238 76.4836 40.0732 77.7389 40.558 78.9102C41.0428 80.0814 41.7537 81.1457 42.6499 82.0422C43.5461 82.9387 44.6101 83.6498 45.7812 84.135C46.9524 84.6202 48.2076 84.87 49.4752 84.87H94.5202C95.7881 84.8703 97.0437 84.6209 98.2151 84.1359C99.3866 83.6509 100.451 82.9398 101.348 82.0432C102.244 81.1467 102.955 80.0823 103.44 78.9108C103.925 77.7394 104.175 76.4838 104.174 75.216V49.476C104.174 48.2083 103.924 46.9531 103.439 45.782C102.954 44.6109 102.243 43.5468 101.346 42.6506C100.45 41.7544 99.3857 41.0436 98.2144 40.5587C97.0432 40.0739 95.7879 39.8246 94.5202 39.825H49.4752ZM64.6222 50.418C64.0187 49.8145 63.2002 49.4754 62.3467 49.4754C61.4932 49.4754 60.6747 49.8145 60.0712 50.418C59.4677 51.0215 59.1287 51.84 59.1287 52.6935C59.1287 53.5469 59.4677 54.3655 60.0712 54.969L67.4512 62.349L60.0712 69.723C59.4677 70.3265 59.1287 71.145 59.1287 71.9985C59.1287 72.8519 59.4677 73.6705 60.0712 74.274C60.6747 74.8775 61.4932 75.2165 62.3467 75.2165C63.2002 75.2165 64.0187 74.8775 64.6222 74.274L72.0022 66.894L79.3792 74.274C79.678 74.5726 80.0328 74.8094 80.4231 74.971C80.8135 75.1325 81.2318 75.2156 81.6543 75.2154C82.0767 75.2153 82.495 75.132 82.8853 74.9702C83.2755 74.8084 83.6301 74.5713 83.9287 74.2725C84.2273 73.9736 84.4642 73.6189 84.6257 73.2286C84.7873 72.8382 84.8703 72.4199 84.8702 71.9974C84.8701 71.5749 84.7867 71.1566 84.6249 70.7664C84.4631 70.3761 84.226 70.0216 83.9272 69.723L76.5472 62.346L83.9272 54.966C84.2258 54.6671 84.4627 54.3124 84.6242 53.9221C84.7858 53.5317 84.8688 53.1134 84.8687 52.6909C84.8686 52.2684 84.7852 51.8501 84.6234 51.4599C84.4616 51.0696 84.2245 50.7151 83.9257 50.4165C83.6269 50.1178 83.2722 49.881 82.8818 49.7194C82.4915 49.5579 82.0731 49.4748 81.6507 49.475C81.2282 49.4751 80.8099 49.5585 80.4197 49.7203C80.0294 49.8821 79.6748 50.1191 79.3762 50.418L71.9992 57.798L64.6222 50.418Z" fill="white"/>
</g>
<defs>
<clipPath id="clip0_4039_12838">
<rect width="144" height="144" fill="white"/>
</clipPath>
</defs>
</svg>
