<svg width="144" height="144" viewBox="0 0 144 144" fill="none" xmlns="http://www.w3.org/2000/svg">
<g clip-path="url(#clip0_4039_12837)">
<rect width="144" height="144" fill="#5865F2"/>
<path fill-rule="evenodd" clip-rule="evenodd" d="M0 63.0719V143.722C0.214 143.816 0.428 143.908 0.642 144H13.466C14.811 141.921 16.048 139.773 17.167 137.555C17.271 137.351 17.172 137.108 16.959 137.027C13.696 135.789 10.588 134.279 7.599 132.565C7.362 132.427 7.343 132.089 7.561 131.927C8.19 131.455 8.819 130.965 9.42 130.47C9.528 130.379 9.68 130.36 9.808 130.417C29.446 139.384 50.708 139.384 70.115 130.417C70.243 130.356 70.394 130.375 70.507 130.465C71.108 130.96 71.737 131.455 72.371 131.927C72.589 132.089 72.574 132.427 72.338 132.565C69.349 134.312 66.241 135.789 62.973 137.022C62.76 137.103 62.665 137.351 62.769 137.555C63.913 139.771 65.16 141.92 66.498 144H79.323C85.887 141.195 92.536 137.504 99.327 132.517C99.417 132.451 99.474 132.351 99.483 132.241C101.985 106.357 95.292 83.8719 81.741 63.9389C81.708 63.8729 81.651 63.8249 81.585 63.7969C73.937 60.2869 65.735 57.7019 57.159 56.2209C57.003 56.1919 56.847 56.2639 56.767 56.4059C55.712 58.2829 54.544 60.7299 53.725 62.6539C44.502 61.2729 35.326 61.2729 26.292 62.6539C25.473 60.6869 24.262 58.2829 23.203 56.4059C23.122 56.2679 22.966 56.1969 22.81 56.2209C14.839 57.5939 7.188 59.9259 0 63.0719ZM20.1 118.604C14.187 118.604 9.316 113.175 9.316 106.509C9.316 99.8429 14.093 94.4139 20.1 94.4139C26.154 94.4139 30.979 99.8899 30.884 106.509C30.884 113.175 26.107 118.604 20.1 118.604ZM59.974 118.604C54.061 118.604 49.189 113.175 49.189 106.509C49.189 99.8429 53.967 94.4139 59.974 94.4139C66.028 94.4139 70.853 99.8899 70.758 106.509C70.758 113.175 66.028 118.604 59.974 118.604Z" fill="black" fill-opacity="0.15"/>
<path d="M75.2154 96.132C75.2154 97.02 75.9354 97.74 76.8264 97.74H81.6504C82.4867 97.7655 83.2802 98.1157 83.8628 98.7163C84.4453 99.3169 84.7711 100.121 84.7711 100.957C84.7711 101.794 84.4453 102.598 83.8628 103.199C83.2802 103.799 82.4867 104.149 81.6504 104.175H62.3454C61.509 104.149 60.7155 103.799 60.133 103.199C59.5504 102.598 59.2246 101.794 59.2246 100.957C59.2246 100.121 59.5504 99.3169 60.133 98.7163C60.7155 98.1157 61.509 97.7655 62.3454 97.74H67.1754C68.0604 97.74 68.7834 97.02 68.7834 96.132V89.697C68.7834 88.809 69.5034 88.086 70.3914 88.086H73.6074C74.4954 88.086 75.2184 88.806 75.2184 89.697V96.132H75.2154Z" fill="white"/>
<path fill-rule="evenodd" clip-rule="evenodd" d="M49.4752 39.825C46.9156 39.825 44.4608 40.8418 42.6509 42.6517C40.841 44.4616 39.8242 46.9163 39.8242 49.476V75.216C39.8238 76.4836 40.0732 77.7389 40.558 78.9102C41.0428 80.0814 41.7537 81.1457 42.6499 82.0422C43.5461 82.9387 44.6101 83.6498 45.7812 84.135C46.9524 84.6202 48.2076 84.87 49.4752 84.87H94.5202C95.7881 84.8703 97.0437 84.6209 98.2151 84.1359C99.3866 83.6509 100.451 82.9398 101.348 82.0432C102.244 81.1467 102.955 80.0823 103.44 78.9108C103.925 77.7394 104.175 76.4838 104.174 75.216V49.476C104.174 48.2083 103.924 46.9531 103.439 45.782C102.954 44.6109 102.243 43.5468 101.346 42.6506C100.45 41.7544 99.3857 41.0436 98.2144 40.5587C97.0432 40.0739 95.7879 39.8246 94.5202 39.825H49.4752ZM90.3622 56.85C90.6613 57.1486 90.8985 57.5033 91.0604 57.8938C91.2223 58.2842 91.3056 58.7028 91.3056 59.1255C91.3056 59.5481 91.2223 59.9667 91.0604 60.3571C90.8985 60.7476 90.6613 61.1023 90.3622 61.401L80.7112 71.052C80.4126 71.3508 80.058 71.5879 79.6678 71.7496C79.2775 71.9114 78.8592 71.9948 78.4368 71.9949C78.0143 71.9951 77.596 71.912 77.2056 71.7505C76.8153 71.5889 76.4605 71.3521 76.1617 71.0535C75.5582 70.4503 75.219 69.6322 75.2187 68.779C75.2186 68.3566 75.3017 67.9382 75.4632 67.5478C75.6248 67.1575 75.8616 66.8028 76.1602 66.504L80.3212 62.343H75.2182C71.8049 62.343 68.5314 63.6989 66.1178 66.1125C63.7042 68.5261 62.3482 71.7996 62.3482 75.213C62.3227 76.0493 61.9725 76.8428 61.3719 77.4254C60.7713 78.0079 59.9674 78.3337 59.1307 78.3337C58.294 78.3337 57.4902 78.0079 56.8896 77.4254C56.2889 76.8428 55.9388 76.0493 55.9132 75.213C55.9132 70.0929 57.9471 65.1826 61.5675 61.5623C65.1879 57.9419 70.0982 55.908 75.2182 55.908H80.3182L76.1632 51.75C75.5601 51.1468 75.2213 50.3289 75.2213 49.476C75.2213 48.623 75.5601 47.8051 76.1632 47.202C76.7663 46.5988 77.5843 46.26 78.4372 46.26C79.2901 46.26 80.1081 46.5988 80.7112 47.202L90.3652 56.853L90.3622 56.85Z" fill="white"/>
</g>
<defs>
<clipPath id="clip0_4039_12837">
<rect width="144" height="144" fill="white"/>
</clipPath>
</defs>
</svg>
