<svg width="144" height="144" viewBox="0 0 144 144" fill="none" xmlns="http://www.w3.org/2000/svg">
<g clip-path="url(#clip0_4039_12840)">
<rect width="144" height="144" fill="#5865F2"/>
<path fill-rule="evenodd" clip-rule="evenodd" d="M0 63.0719V143.722C0.214 143.816 0.428 143.908 0.642 144H13.466C14.811 141.921 16.048 139.773 17.167 137.555C17.271 137.351 17.172 137.108 16.959 137.027C13.696 135.789 10.588 134.279 7.599 132.565C7.362 132.427 7.343 132.089 7.561 131.927C8.19 131.455 8.819 130.965 9.42 130.47C9.528 130.379 9.68 130.36 9.808 130.417C29.446 139.384 50.708 139.384 70.115 130.417C70.243 130.356 70.394 130.375 70.507 130.465C71.108 130.96 71.737 131.455 72.371 131.927C72.589 132.089 72.574 132.427 72.338 132.565C69.349 134.312 66.241 135.789 62.973 137.022C62.76 137.103 62.665 137.351 62.769 137.555C63.913 139.771 65.16 141.92 66.498 144H79.323C85.887 141.195 92.536 137.504 99.327 132.517C99.417 132.451 99.474 132.351 99.483 132.241C101.985 106.357 95.292 83.8719 81.741 63.9389C81.708 63.8729 81.651 63.8249 81.585 63.7969C73.937 60.2869 65.735 57.7019 57.159 56.2209C57.003 56.1919 56.847 56.2639 56.767 56.4059C55.712 58.2829 54.544 60.7299 53.725 62.6539C44.502 61.2729 35.326 61.2729 26.292 62.6539C25.473 60.6869 24.262 58.2829 23.203 56.4059C23.122 56.2679 22.966 56.1969 22.81 56.2209C14.839 57.5939 7.188 59.9259 0 63.0719ZM20.1 118.604C14.187 118.604 9.316 113.175 9.316 106.509C9.316 99.8429 14.093 94.4139 20.1 94.4139C26.154 94.4139 30.979 99.8899 30.884 106.509C30.884 113.175 26.107 118.604 20.1 118.604ZM59.974 118.604C54.061 118.604 49.189 113.175 49.189 106.509C49.189 99.8429 53.967 94.4139 59.974 94.4139C66.028 94.4139 70.853 99.8899 70.758 106.509C70.758 113.175 66.028 118.604 59.974 118.604Z" fill="black" fill-opacity="0.15"/>
<path fill-rule="evenodd" clip-rule="evenodd" d="M68.97 45.4799C69.0421 45.084 69.0345 44.6777 68.9476 44.2848C68.8607 43.8919 68.6963 43.5203 68.4639 43.1918C68.2316 42.8632 67.936 42.5843 67.5945 42.3715C67.2529 42.1587 66.8724 42.0161 66.4751 41.9522C66.0778 41.8883 65.6717 41.9044 65.2807 41.9994C64.8897 42.0945 64.5216 42.2666 64.1979 42.5058C63.8743 42.7449 63.6016 43.0462 63.3959 43.3921C63.1902 43.7379 63.0556 44.1214 63 44.5199L60.45 59.9999H48C47.2044 59.9999 46.4413 60.316 45.8787 60.8786C45.3161 61.4412 45 62.2043 45 62.9999C45 63.7956 45.3161 64.5586 45.8787 65.1212C46.4413 65.6839 47.2044 65.9999 48 65.9999H59.46L57.45 77.9999H45C44.2044 77.9999 43.4413 78.316 42.8787 78.8786C42.3161 79.4412 42 80.2043 42 80.9999C42 81.7956 42.3161 82.5586 42.8787 83.1212C43.4413 83.6839 44.2044 83.9999 45 83.9999H56.46L54.06 98.5199C53.9867 99.2785 54.2048 100.037 54.67 100.64C55.1353 101.244 55.8128 101.648 56.5651 101.77C57.3173 101.892 58.0879 101.723 58.7202 101.298C59.3526 100.873 59.7995 100.223 59.97 99.4799L62.55 83.9999H77.46L75.06 98.5199C74.9867 99.2785 75.2048 100.037 75.67 100.64C76.1353 101.244 76.8128 101.648 77.5651 101.77C78.3173 101.892 79.0879 101.723 79.7202 101.298C80.3526 100.873 80.7995 100.223 80.97 99.4799L83.55 83.9999H96C96.7957 83.9999 97.5587 83.6839 98.1213 83.1212C98.6839 82.5586 99 81.7956 99 80.9999C99 80.2043 98.6839 79.4412 98.1213 78.8786C97.5587 78.316 96.7957 77.9999 96 77.9999H84.54L86.55 65.9999H99C99.7957 65.9999 100.559 65.6839 101.121 65.1212C101.684 64.5586 102 63.7956 102 62.9999C102 62.2043 101.684 61.4412 101.121 60.8786C100.559 60.316 99.7957 59.9999 99 59.9999H87.54L89.94 45.4799C90.0318 45.08 90.0406 44.6656 89.9659 44.2621C89.8912 43.8587 89.7345 43.4749 89.5055 43.1344C89.2765 42.794 88.9802 42.5041 88.6347 42.2827C88.2893 42.0613 87.9021 41.9132 87.4971 41.8474C87.0921 41.7816 86.6779 41.7996 86.2802 41.9003C85.8824 42.0009 85.5095 42.1821 85.1846 42.4326C84.8596 42.683 84.5895 42.9975 84.3909 43.3566C84.1923 43.7156 84.0695 44.1115 84.03 44.5199L81.45 59.9999H66.54L68.94 45.4799H68.97ZM78.45 77.9999L80.46 65.9999H65.55L63.54 77.9999H78.45Z" fill="white"/>
</g>
<defs>
<clipPath id="clip0_4039_12840">
<rect width="144" height="144" fill="white"/>
</clipPath>
</defs>
</svg>
