<svg width="144" height="144" viewBox="0 0 144 144" fill="none" xmlns="http://www.w3.org/2000/svg">
<g clip-path="url(#clip0_4039_12852)">
<rect width="144" height="144" fill="#5865F2"/>
<path fill-rule="evenodd" clip-rule="evenodd" d="M0 63.0719V143.722C0.214 143.816 0.428 143.908 0.642 144H13.466C14.811 141.921 16.048 139.773 17.167 137.555C17.271 137.351 17.172 137.108 16.959 137.027C13.696 135.789 10.588 134.279 7.599 132.565C7.362 132.427 7.343 132.089 7.561 131.927C8.19 131.455 8.819 130.965 9.42 130.47C9.528 130.379 9.68 130.36 9.808 130.417C29.446 139.384 50.708 139.384 70.115 130.417C70.243 130.356 70.394 130.375 70.507 130.465C71.108 130.96 71.737 131.455 72.371 131.927C72.589 132.089 72.574 132.427 72.338 132.565C69.349 134.312 66.241 135.789 62.973 137.022C62.76 137.103 62.665 137.351 62.769 137.555C63.913 139.771 65.16 141.92 66.498 144H79.323C85.887 141.195 92.536 137.504 99.327 132.517C99.417 132.451 99.474 132.351 99.483 132.241C101.985 106.357 95.292 83.8719 81.741 63.9389C81.708 63.8729 81.651 63.8249 81.585 63.7969C73.937 60.2869 65.735 57.7019 57.159 56.2209C57.003 56.1919 56.847 56.2639 56.767 56.4059C55.712 58.2829 54.544 60.7299 53.725 62.6539C44.502 61.2729 35.326 61.2729 26.292 62.6539C25.473 60.6869 24.262 58.2829 23.203 56.4059C23.122 56.2679 22.966 56.1969 22.81 56.2209C14.839 57.5939 7.188 59.9259 0 63.0719ZM20.1 118.604C14.187 118.604 9.316 113.175 9.316 106.509C9.316 99.8429 14.093 94.4139 20.1 94.4139C26.154 94.4139 30.979 99.8899 30.884 106.509C30.884 113.175 26.107 118.604 20.1 118.604ZM59.974 118.604C54.061 118.604 49.189 113.175 49.189 106.509C49.189 99.8429 53.967 94.4139 59.974 94.4139C66.028 94.4139 70.853 99.8899 70.758 106.509C70.758 113.175 66.028 118.604 59.974 118.604Z" fill="black" fill-opacity="0.15"/>
<path d="M72 66C75.1826 66 78.2348 64.7357 80.4853 62.4853C82.7357 60.2348 84 57.1826 84 54C84 50.8174 82.7357 47.7652 80.4853 45.5147C78.2348 43.2643 75.1826 42 72 42C68.8174 42 65.7652 43.2643 63.5147 45.5147C61.2643 47.7652 60 50.8174 60 54C60 57.1826 61.2643 60.2348 63.5147 62.4853C65.7652 64.7357 68.8174 66 72 66Z" fill="white"/>
<path d="M70.59 69C63.0075 69 55.7355 72.0121 50.3738 77.3738C45.0122 82.7355 42 90.0075 42 97.59C42 100.02 43.98 102 46.41 102H47.07C47.79 102 48.39 101.49 48.57 100.8C49.44 97.44 51.09 94.29 52.53 92.07C52.95 91.44 53.82 91.77 53.73 92.52L52.95 100.35C52.89 101.25 53.55 102 54.45 102H71.9974C71.7543 101.819 71.5243 101.625 71.3085 101.421L71.2497 101.365L71.1924 101.308C69.7407 99.856 69 97.9368 69 96V84C69 81.9281 69.8477 80.1086 71.0793 78.8085L71.135 78.7497L71.1924 78.6924C72.644 77.2407 74.5632 76.5 76.5 76.5H78.2364L82.8631 71.4409C83.0661 71.2176 83.2749 71.016 83.4852 70.8341C80.2947 69.6326 76.8849 69 73.41 69H70.59Z" fill="white"/>
<path d="M89.5607 75.4394C89.842 75.7207 90 76.1022 90 76.5V103.5C90 103.898 89.842 104.279 89.5607 104.561C89.2794 104.842 88.8978 105 88.5 105H88.41C88.2018 105.001 87.9956 104.959 87.8045 104.877C87.6134 104.794 87.4416 104.673 87.3 104.52L80.88 97.5H76.5C76.1022 97.5 75.7206 97.342 75.4393 97.0607C75.158 96.7794 75 96.3979 75 96V84C75 83.6022 75.158 83.2207 75.4393 82.9394C75.7206 82.6581 76.1022 82.5 76.5 82.5H80.88L87.3 75.48C87.4416 75.3274 87.6134 75.2059 87.8045 75.1232C87.9956 75.0406 88.2018 74.9986 88.41 75H88.5C88.8978 75 89.2794 75.1581 89.5607 75.4394Z" fill="white"/>
<path d="M93 101.745C93 102.63 93.78 103.335 94.65 103.125C97.5967 102.416 100.219 100.735 102.095 98.3545C103.97 95.9736 104.99 93.0309 104.99 90C104.99 86.9691 103.97 84.0264 102.095 81.6456C100.219 79.2648 97.5967 77.5844 94.65 76.875C93.78 76.665 93 77.355 93 78.255V78.3C93.0096 78.6663 93.1398 79.0191 93.3703 79.3038C93.6008 79.5886 93.9188 79.7893 94.275 79.875C96.493 80.4843 98.4496 81.805 99.8441 83.6342C101.239 85.4634 101.994 87.6999 101.994 90C101.994 92.3002 101.239 94.5367 99.8441 96.3659C98.4496 98.1951 96.493 99.5158 94.275 100.125C93.555 100.32 93 100.95 93 101.7V101.745Z" fill="white"/>
<path d="M94.74 96.765C93.885 97.185 93 96.465 93 95.52V95.31C93 94.665 93.42 94.11 93.945 93.78C94.5766 93.3721 95.0958 92.8124 95.4554 92.1521C95.815 91.4918 96.0034 90.7519 96.0034 90C96.0034 89.2482 95.815 88.5083 95.4554 87.848C95.0958 87.1877 94.5766 86.628 93.945 86.22C93.42 85.875 93 85.32 93 84.69V84.48C93 83.535 93.885 82.83 94.74 83.235C96.0161 83.8459 97.0935 84.8052 97.8476 86.0022C98.6018 87.1993 99.002 88.5852 99.002 90C99.002 91.4148 98.6018 92.8008 97.8476 93.9978C97.0935 95.1949 96.0161 96.1542 94.74 96.765Z" fill="white"/>
</g>
<defs>
<clipPath id="clip0_4039_12852">
<rect width="144" height="144" fill="white"/>
</clipPath>
</defs>
</svg>
