<svg width="144" height="144" viewBox="0 0 144 144" fill="none" xmlns="http://www.w3.org/2000/svg">
<g clip-path="url(#clip0_4039_12835)">
<rect width="144" height="144" fill="#5865F2"/>
<path fill-rule="evenodd" clip-rule="evenodd" d="M0 63.0719V143.722C0.214 143.816 0.428 143.908 0.642 144H13.466C14.811 141.921 16.048 139.773 17.167 137.555C17.271 137.351 17.172 137.108 16.959 137.027C13.696 135.789 10.588 134.279 7.599 132.565C7.362 132.427 7.343 132.089 7.561 131.927C8.19 131.455 8.819 130.965 9.42 130.47C9.528 130.379 9.68 130.36 9.808 130.417C29.446 139.384 50.708 139.384 70.115 130.417C70.243 130.356 70.394 130.375 70.507 130.465C71.108 130.96 71.737 131.455 72.371 131.927C72.589 132.089 72.574 132.427 72.338 132.565C69.349 134.312 66.241 135.789 62.973 137.022C62.76 137.103 62.665 137.351 62.769 137.555C63.913 139.771 65.16 141.92 66.498 144H79.323C85.887 141.195 92.536 137.504 99.327 132.517C99.417 132.451 99.474 132.351 99.483 132.241C101.985 106.357 95.292 83.8719 81.741 63.9389C81.708 63.8729 81.651 63.8249 81.585 63.7969C73.937 60.2869 65.735 57.7019 57.159 56.2209C57.003 56.1919 56.847 56.2639 56.767 56.4059C55.712 58.2829 54.544 60.7299 53.725 62.6539C44.502 61.2729 35.326 61.2729 26.292 62.6539C25.473 60.6869 24.262 58.2829 23.203 56.4059C23.122 56.2679 22.966 56.1969 22.81 56.2209C14.839 57.5939 7.188 59.9259 0 63.0719ZM20.1 118.604C14.187 118.604 9.316 113.175 9.316 106.509C9.316 99.8429 14.093 94.4139 20.1 94.4139C26.154 94.4139 30.979 99.8899 30.884 106.509C30.884 113.175 26.107 118.604 20.1 118.604ZM59.974 118.604C54.061 118.604 49.189 113.175 49.189 106.509C49.189 99.8429 53.967 94.4139 59.974 94.4139C66.028 94.4139 70.853 99.8899 70.758 106.509C70.758 113.175 66.028 118.604 59.974 118.604Z" fill="black" fill-opacity="0.15"/>
<path d="M83.1104 48.2509C82.4249 48.0855 81.7168 48 81 48H48C45.6131 48 43.3239 48.9482 41.636 50.636C39.9482 52.3238 39 54.613 39 57V87C39 88.5864 39.4188 90.1296 40.1953 91.4818L83.1104 48.2509Z" fill="white"/>
<path d="M60.4925 96L99.4095 56.7967L100.659 56.172C101.116 55.9435 101.624 55.8356 102.135 55.8586C102.646 55.8816 103.142 56.0347 103.577 56.3034C104.012 56.5721 104.371 56.9474 104.62 57.3938C104.869 57.8402 105 58.3428 105 58.854V85.146C105 85.6571 104.869 86.1598 104.62 86.6062C104.371 87.0525 104.012 87.4279 103.577 87.6965C103.142 87.9652 102.646 88.1183 102.135 88.1413C101.624 88.1643 101.116 88.0565 100.659 87.828L91.659 83.328C91.1603 83.0795 90.7408 82.6969 90.4478 82.2231C90.1554 81.7505 90.0004 81.2059 90 80.6502V87C90 89.3869 89.0518 91.6761 87.364 93.3639C85.6761 95.0518 83.3869 96 81 96H60.4925Z" fill="white"/>
<path fill-rule="evenodd" clip-rule="evenodd" d="M104.121 39.8787C105.293 41.0503 105.293 42.9497 104.121 44.1213L44.1214 104.121C42.9498 105.293 41.0503 105.293 39.8787 104.121C38.7072 102.95 38.7072 101.05 39.8787 99.8787L99.8787 39.8787C101.05 38.7071 102.95 38.7071 104.121 39.8787Z" fill="white"/>
</g>
<defs>
<clipPath id="clip0_4039_12835">
<rect width="144" height="144" fill="white"/>
</clipPath>
</defs>
</svg>
