<svg width="144" height="144" viewBox="0 0 144 144" fill="none" xmlns="http://www.w3.org/2000/svg">
<g clip-path="url(#clip0_4039_12839)">
<rect width="144" height="144" fill="#5865F2"/>
<path fill-rule="evenodd" clip-rule="evenodd" d="M0 63.0719V143.722C0.214 143.816 0.428 143.908 0.642 144H13.466C14.811 141.921 16.048 139.773 17.167 137.555C17.271 137.351 17.172 137.108 16.959 137.027C13.696 135.789 10.588 134.279 7.599 132.565C7.362 132.427 7.343 132.089 7.561 131.927C8.19 131.455 8.819 130.965 9.42 130.47C9.528 130.379 9.68 130.36 9.808 130.417C29.446 139.384 50.708 139.384 70.115 130.417C70.243 130.356 70.394 130.375 70.507 130.465C71.108 130.96 71.737 131.455 72.371 131.927C72.589 132.089 72.574 132.427 72.338 132.565C69.349 134.312 66.241 135.789 62.973 137.022C62.76 137.103 62.665 137.351 62.769 137.555C63.913 139.771 65.16 141.92 66.498 144H79.323C85.887 141.195 92.536 137.504 99.327 132.517C99.417 132.451 99.474 132.351 99.483 132.241C101.985 106.357 95.292 83.8719 81.741 63.9389C81.708 63.8729 81.651 63.8249 81.585 63.7969C73.937 60.2869 65.735 57.7019 57.159 56.2209C57.003 56.1919 56.847 56.2639 56.767 56.4059C55.712 58.2829 54.544 60.7299 53.725 62.6539C44.502 61.2729 35.326 61.2729 26.292 62.6539C25.473 60.6869 24.262 58.2829 23.203 56.4059C23.122 56.2679 22.966 56.1969 22.81 56.2209C14.839 57.5939 7.188 59.9259 0 63.0719ZM20.1 118.604C14.187 118.604 9.316 113.175 9.316 106.509C9.316 99.8429 14.093 94.4139 20.1 94.4139C26.154 94.4139 30.979 99.8899 30.884 106.509C30.884 113.175 26.107 118.604 20.1 118.604ZM59.974 118.604C54.061 118.604 49.189 113.175 49.189 106.509C49.189 99.8429 53.967 94.4139 59.974 94.4139C66.028 94.4139 70.853 99.8899 70.758 106.509C70.758 113.175 66.028 118.604 59.974 118.604Z" fill="black" fill-opacity="0.15"/>
<path d="M71.1213 42.8787C71.6839 43.4414 72 44.2044 72 45.0001V99.0001C72 99.7957 71.6839 100.559 71.1213 101.121C70.5587 101.684 69.7957 102 69 102H68.82C68.4036 102.003 67.9912 101.919 67.609 101.754C67.2268 101.588 66.8831 101.345 66.6 101.04L53.76 87.0001H45C44.2044 87.0001 43.4413 86.684 42.8787 86.1214C42.3161 85.5588 42 84.7957 42 84.0001V60.0001C42 59.2044 42.3161 58.4414 42.8787 57.8787C43.4413 57.3161 44.2044 57.0001 45 57.0001H53.76L66.6 42.9601C66.8831 42.6547 67.2268 42.4117 67.609 42.2464C67.9912 42.0812 68.4036 41.9973 68.82 42.0001H69C69.7957 42.0001 70.5587 42.3161 71.1213 42.8787Z" fill="white"/>
<path d="M78 95.4901C78 97.2601 79.56 98.6701 81.3 98.2501C87.1934 96.8312 92.4379 93.4705 96.1892 88.7089C99.9405 83.9473 101.98 78.0619 101.98 72.0001C101.98 65.9383 99.9405 60.0528 96.1892 55.2912C92.4379 50.5296 87.1934 47.1689 81.3 45.7501C79.56 45.3301 78 46.7101 78 48.5101V48.6001C78.0193 49.3325 78.2796 50.0382 78.7406 50.6077C79.2016 51.1772 79.8376 51.5787 80.55 51.7501C84.986 52.9685 88.8992 55.6099 91.6882 59.2683C94.4773 62.9267 95.9879 67.3998 95.9879 72.0001C95.9879 76.6004 94.4773 81.0734 91.6882 84.7318C88.8992 88.3902 84.986 91.0316 80.55 92.2501C79.11 92.6401 78 93.9001 78 95.4001V95.4901Z" fill="white"/>
<path d="M78 83.0401C78 84.9301 79.77 86.3701 81.48 85.5301C84.0323 84.3084 86.187 82.3898 87.6953 79.9957C89.2036 77.6016 90.004 74.8297 90.004 72.0001C90.004 69.1705 89.2036 66.3986 87.6953 64.0045C86.187 61.6104 84.0323 59.6917 81.48 58.4701C79.77 57.6601 78 59.0701 78 60.9601V61.3801C78 62.6401 78.84 63.7501 79.89 64.4401C81.1531 65.256 82.1917 66.3753 82.9108 67.696C83.63 69.0166 84.0067 70.4963 84.0067 72.0001C84.0067 73.5038 83.63 74.9835 82.9108 76.3042C82.1917 77.6248 81.1531 78.7442 79.89 79.5601C78.84 80.2201 78 81.3301 78 82.6201V83.0401Z" fill="white"/>
</g>
<defs>
<clipPath id="clip0_4039_12839">
<rect width="144" height="144" fill="white"/>
</clipPath>
</defs>
</svg>
