<svg width="144" height="144" viewBox="0 0 144 144" fill="none" xmlns="http://www.w3.org/2000/svg">
<g clip-path="url(#clip0_4041_6072)">
<rect width="144" height="144" fill="#F23F43"/>
<path fill-rule="evenodd" clip-rule="evenodd" d="M0 63.0719V143.722C0.214 143.816 0.428 143.908 0.642 144H13.466C14.811 141.921 16.048 139.773 17.167 137.555C17.271 137.351 17.172 137.108 16.959 137.027C13.696 135.789 10.588 134.279 7.599 132.565C7.362 132.427 7.343 132.089 7.561 131.927C8.19 131.455 8.819 130.965 9.42 130.47C9.528 130.379 9.68 130.36 9.808 130.417C29.446 139.384 50.708 139.384 70.115 130.417C70.243 130.356 70.394 130.375 70.507 130.465C71.108 130.96 71.737 131.455 72.371 131.927C72.589 132.089 72.574 132.427 72.338 132.565C69.349 134.312 66.241 135.789 62.973 137.022C62.76 137.103 62.665 137.351 62.769 137.555C63.913 139.771 65.16 141.92 66.498 144H79.323C85.887 141.195 92.536 137.504 99.327 132.517C99.417 132.451 99.474 132.351 99.483 132.241C101.985 106.357 95.292 83.8719 81.741 63.9389C81.708 63.8729 81.651 63.8249 81.585 63.7969C73.937 60.2869 65.735 57.7019 57.159 56.2209C57.003 56.1919 56.847 56.2639 56.767 56.4059C55.712 58.2829 54.544 60.7299 53.725 62.6539C44.502 61.2729 35.326 61.2729 26.292 62.6539C25.473 60.6869 24.262 58.2829 23.203 56.4059C23.122 56.2679 22.966 56.1969 22.81 56.2209C14.839 57.5939 7.188 59.9259 0 63.0719ZM20.1 118.604C14.187 118.604 9.316 113.175 9.316 106.509C9.316 99.8429 14.093 94.4139 20.1 94.4139C26.154 94.4139 30.979 99.8899 30.884 106.509C30.884 113.175 26.107 118.604 20.1 118.604ZM59.974 118.604C54.061 118.604 49.189 113.175 49.189 106.509C49.189 99.8429 53.967 94.4139 59.974 94.4139C66.028 94.4139 70.853 99.8899 70.758 106.509C70.758 113.175 66.028 118.604 59.974 118.604Z" fill="black" fill-opacity="0.15"/>
<path d="M100.004 66.5159C84.5544 51.0689 59.5074 51.0689 44.0604 66.5159C36.9294 73.6559 37.9494 82.7819 43.3314 88.1699C43.7045 88.5428 44.1872 88.7863 44.7088 88.8646C45.2304 88.9429 45.7634 88.8519 46.2294 88.6049L59.1894 81.7439C59.7691 81.4373 60.2211 80.9349 60.4651 80.3262C60.709 79.7175 60.729 79.042 60.5214 78.4199L58.3254 71.8349C62.3246 68.9784 67.1164 67.4428 72.0309 67.4428C76.9455 67.4428 81.7373 68.9784 85.7364 71.8349L83.4444 80.2469C83.2673 80.8982 83.3342 81.5919 83.6325 82.1973C83.9309 82.8028 84.4401 83.2785 85.0644 83.5349L97.9074 88.8239C98.8374 89.2079 99.9084 88.9919 100.619 88.2839C105.995 82.9049 107.129 73.6439 100.004 66.5189V66.5159Z" fill="white"/>
</g>
<defs>
<clipPath id="clip0_4041_6072">
<rect width="144" height="144" fill="white"/>
</clipPath>
</defs>
</svg>
