<svg width="144" height="144" viewBox="0 0 144 144" fill="none" xmlns="http://www.w3.org/2000/svg">
<g clip-path="url(#clip0_4039_12853)">
<rect width="144" height="144" fill="#5865F2"/>
<path fill-rule="evenodd" clip-rule="evenodd" d="M0 63.0719V143.722C0.214 143.816 0.428 143.908 0.642 144H13.466C14.811 141.921 16.048 139.773 17.167 137.555C17.271 137.351 17.172 137.108 16.959 137.027C13.696 135.789 10.588 134.279 7.599 132.565C7.362 132.427 7.343 132.089 7.561 131.927C8.19 131.455 8.819 130.965 9.42 130.47C9.528 130.379 9.68 130.36 9.808 130.417C29.446 139.384 50.708 139.384 70.115 130.417C70.243 130.356 70.394 130.375 70.507 130.465C71.108 130.96 71.737 131.455 72.371 131.927C72.589 132.089 72.574 132.427 72.338 132.565C69.349 134.312 66.241 135.789 62.973 137.022C62.76 137.103 62.665 137.351 62.769 137.555C63.913 139.771 65.16 141.92 66.498 144H79.323C85.887 141.195 92.536 137.504 99.327 132.517C99.417 132.451 99.474 132.351 99.483 132.241C101.985 106.357 95.292 83.8719 81.741 63.9389C81.708 63.8729 81.651 63.8249 81.585 63.7969C73.937 60.2869 65.735 57.7019 57.159 56.2209C57.003 56.1919 56.847 56.2639 56.767 56.4059C55.712 58.2829 54.544 60.7299 53.725 62.6539C44.502 61.2729 35.326 61.2729 26.292 62.6539C25.473 60.6869 24.262 58.2829 23.203 56.4059C23.122 56.2679 22.966 56.1969 22.81 56.2209C14.839 57.5939 7.188 59.9259 0 63.0719ZM20.1 118.604C14.187 118.604 9.316 113.175 9.316 106.509C9.316 99.8429 14.093 94.4139 20.1 94.4139C26.154 94.4139 30.979 99.8899 30.884 106.509C30.884 113.175 26.107 118.604 20.1 118.604ZM59.974 118.604C54.061 118.604 49.189 113.175 49.189 106.509C49.189 99.8429 53.967 94.4139 59.974 94.4139C66.028 94.4139 70.853 99.8899 70.758 106.509C70.758 113.175 66.028 118.604 59.974 118.604Z" fill="black" fill-opacity="0.15"/>
<path d="M71.1213 42.8787C71.6839 43.4414 72 44.2044 72 45.0001V99.0001C72 99.7957 71.6839 100.559 71.1213 101.121C70.5587 101.684 69.7957 102 69 102H68.82C68.4036 102.003 67.9912 101.919 67.609 101.754C67.2268 101.588 66.8831 101.345 66.6 101.04L53.76 87.0001H45C44.2044 87.0001 43.4413 86.684 42.8787 86.1214C42.3161 85.5588 42 84.7957 42 84.0001V60.0001C42 59.2044 42.3161 58.4414 42.8787 57.8787C43.4413 57.3161 44.2044 57.0001 45 57.0001H53.76L66.6 42.9601C66.8831 42.6547 67.2268 42.4117 67.609 42.2464C67.9912 42.0812 68.4036 41.9973 68.82 42.0001H69C69.7957 42.0001 70.5587 42.3161 71.1213 42.8787Z" fill="white"/>
<path d="M96.8787 98.1214C97.4413 98.684 98.2043 99.0001 99 99.0001C99.7956 99.0001 100.559 98.684 101.121 98.1214C101.684 97.5588 102 96.7957 102 96.0001V74.4001C103.579 73.7109 104.873 72.4989 105.664 70.968C106.454 69.4371 106.694 67.6806 106.342 65.9939C105.99 64.3072 105.068 62.7931 103.731 61.7063C102.394 60.6195 100.723 60.0262 99 60.0262C97.2769 60.0262 95.6064 60.6195 94.2694 61.7063C92.9323 62.7931 92.0102 64.3072 91.6582 65.9939C91.3062 67.6806 91.5456 69.4371 92.3363 70.968C93.1271 72.4989 94.4208 73.7109 96 74.4001V96.0001C96 96.7957 96.3161 97.5588 96.8787 98.1214Z" fill="white"/>
<path d="M96 54.3301C96.99 54.1201 97.98 54.0001 99 54.0001C100.009 53.9976 101.015 54.1083 102 54.3301V48.0001C102 47.2044 101.684 46.4414 101.121 45.8788C100.559 45.3162 99.7956 45.0001 99 45.0001C98.2043 45.0001 97.4413 45.3162 96.8787 45.8788C96.3161 46.4414 96 47.2044 96 48.0001V54.3301Z" fill="white"/>
<path d="M81.8787 98.1214C81.3161 97.5588 81 96.7957 81 96.0001V89.4001C79.4208 88.7109 78.1271 87.4989 77.3363 85.968C76.5456 84.4371 76.3062 82.6806 76.6582 80.9939C77.0102 79.3072 77.9323 77.7931 79.2694 76.7063C80.6064 75.6195 82.2769 75.0262 84 75.0262C85.723 75.0262 87.3935 75.6195 88.7306 76.7063C90.0677 77.7931 90.9897 79.3072 91.3418 80.9939C91.6938 82.6806 91.4543 84.4371 90.6636 85.968C89.8729 87.4989 88.5792 88.7109 87 89.4001V96.0001C87 96.7957 86.6839 97.5588 86.1213 98.1214C85.5587 98.684 84.7956 99.0001 84 99.0001C83.2043 99.0001 82.4413 98.684 81.8787 98.1214Z" fill="white"/>
<path d="M87 48.0001V69.3301C85.0253 68.88 82.9747 68.88 81 69.3301V48.0001C81 47.2044 81.3161 46.4414 81.8787 45.8788C82.4413 45.3162 83.2043 45.0001 84 45.0001C84.7956 45.0001 85.5587 45.3162 86.1213 45.8788C86.6839 46.4414 87 47.2044 87 48.0001Z" fill="white"/>
</g>
<defs>
<clipPath id="clip0_4039_12853">
<rect width="144" height="144" fill="white"/>
</clipPath>
</defs>
</svg>
